STARTFONT 2.1
FONT -gnu-Unifont Johab-Medium-R-Normal-Sans-16-160-75-75-c-80-Johab-1
SIZE 16 75 75
FONTBOUNDINGBOX 16 16 0 -2
STARTPROPERTIES 24
COPYRIGHT "Copyright (C) 2013 Paul Hardy. Licensed under the GNU General Public License; either version 2, or (at your option) a later version, with the GNU Font Embedding Exception."
FONT_VERSION "6.3.20131215"
FONT_TYPE "Bitmap"
FOUNDRY "GNU"
FAMILY_NAME "Unifont Johab"
WEIGHT_NAME "Medium"
SLANT "R"
SETWIDTH_NAME "Normal"
ADD_STYLE_NAME "Sans Serif"
PIXEL_SIZE 16
POINT_SIZE 160
RESOLUTION_X 75
RESOLUTION_Y 75
SPACING "C"
AVERAGE_WIDTH 80
CHARSET_REGISTRY "Johab"
CHARSET_ENCODING "1"
FONT_ASCENT 14
FONT_DESCENT 2
UNDERLINE_POSITION -2
UNDERLINE_THICKNESS 1
CAP_HEIGHT 10
X_HEIGHT 8
DEFAULT_CHAR 65533
ENDPROPERTIES
CHARS 529
STARTCHAR U+0000
ENCODING 0
SWIDTH 1000 0
DWIDTH 16 0
BBX 16 16 0 -2
BITMAP 
0000
0000
0000
0000
0000
0000
0000
0000
0000
0000
0000
0000
0000
0000
0000
0000
ENDCHAR
STARTCHAR U+0001
ENCODING 1
SWIDTH 1000 0
DWIDTH 16 0
BBX 16 16 0 -2
BITMAP 
0000
0000
0000
0000
1F80
0080
0080
0080
0100
0100
0200
0400
1800
0000
0000
0000
ENDCHAR
STARTCHAR U+0002
ENCODING 2
SWIDTH 1000 0
DWIDTH 16 0
BBX 16 16 0 -2
BITMAP 
0000
0000
0000
0000
3FF0
0010
0010
0010
0010
0010
0000
0000
0000
0000
0000
0000
ENDCHAR
STARTCHAR U+0003
ENCODING 3
SWIDTH 1000 0
DWIDTH 16 0
BBX 16 16 0 -2
BITMAP 
0000
0000
0000
3FE0
0020
0020
0020
0020
0020
0000
0000
0000
0000
0000
0000
0000
ENDCHAR
STARTCHAR U+0004
ENCODING 4
SWIDTH 1000 0
DWIDTH 16 0
BBX 16 16 0 -2
BITMAP 
0000
0000
0000
0000
3FC0
0040
0040
0040
0040
0000
0000
0000
0000
0000
0000
0000
ENDCHAR
STARTCHAR U+0005
ENCODING 5
SWIDTH 1000 0
DWIDTH 16 0
BBX 16 16 0 -2
BITMAP 
0000
0000
0000
0000
3FE0
0020
0020
0020
0020
0000
0000
0000
0000
0000
0000
0000
ENDCHAR
STARTCHAR U+0006
ENCODING 6
SWIDTH 1000 0
DWIDTH 16 0
BBX 16 16 0 -2
BITMAP 
0000
0000
3E00
0200
0200
0400
0800
3000
0000
0000
0000
0000
0000
0000
0000
0000
ENDCHAR
STARTCHAR U+0007
ENCODING 7
SWIDTH 1000 0
DWIDTH 16 0
BBX 16 16 0 -2
BITMAP 
0000
0000
1FF0
0010
0010
0010
0010
0000
0000
0000
0000
0000
0000
0000
0000
0000
ENDCHAR
STARTCHAR U+0008
ENCODING 8
SWIDTH 1000 0
DWIDTH 16 0
BBX 16 16 0 -2
BITMAP 
0000
0000
1FF0
0010
0010
0010
0000
0000
0000
0000
0000
0000
0000
0000
0000
0000
ENDCHAR
STARTCHAR U+0009
ENCODING 9
SWIDTH 1000 0
DWIDTH 16 0
BBX 16 16 0 -2
BITMAP 
0000
0000
1F80
0080
0080
0080
0080
0000
0000
0000
0000
0000
0000
0000
0000
0000
ENDCHAR
STARTCHAR U+000A
ENCODING 10
SWIDTH 1000 0
DWIDTH 16 0
BBX 16 16 0 -2
BITMAP 
0000
0000
3F00
0100
0100
0100
0000
0000
0000
0000
0000
0000
0000
0000
0000
0000
ENDCHAR
STARTCHAR U+000B
ENCODING 11
SWIDTH 1000 0
DWIDTH 16 0
BBX 16 16 0 -2
BITMAP 
0000
0000
0000
0000
7B80
0880
0880
0880
1100
1100
2200
4400
0800
0000
0000
0000
ENDCHAR
STARTCHAR U+000C
ENCODING 12
SWIDTH 1000 0
DWIDTH 16 0
BBX 16 16 0 -2
BITMAP 
0000
0000
0000
0000
3EF8
0208
0208
0208
0208
0000
0000
0000
0000
0000
0000
0000
ENDCHAR
STARTCHAR U+000D
ENCODING 13
SWIDTH 1000 0
DWIDTH 16 0
BBX 16 16 0 -2
BITMAP 
0000
0000
0000
0000
7DF0
0410
0410
0410
0410
0000
0000
0000
0000
0000
0000
0000
ENDCHAR
STARTCHAR U+000E
ENCODING 14
SWIDTH 1000 0
DWIDTH 16 0
BBX 16 16 0 -2
BITMAP 
0000
0000
0000
0000
7BC0
0840
0840
0840
0840
0000
0000
0000
0000
0000
0000
0000
ENDCHAR
STARTCHAR U+000F
ENCODING 15
SWIDTH 1000 0
DWIDTH 16 0
BBX 16 16 0 -2
BITMAP 
0000
0000
0000
0000
7BC0
0840
0840
0840
0000
0000
0000
0000
0000
0000
0000
0000
ENDCHAR
STARTCHAR U+0010
ENCODING 16
SWIDTH 1000 0
DWIDTH 16 0
BBX 16 16 0 -2
BITMAP 
0000
0000
F780
1080
1080
1080
2100
C600
0000
0000
0000
0000
0000
0000
0000
0000
ENDCHAR
STARTCHAR U+0011
ENCODING 17
SWIDTH 1000 0
DWIDTH 16 0
BBX 16 16 0 -2
BITMAP 
0000
0000
3EF8
0208
0208
0208
0000
0000
0000
0000
0000
0000
0000
0000
0000
0000
ENDCHAR
STARTCHAR U+0012
ENCODING 18
SWIDTH 1000 0
DWIDTH 16 0
BBX 16 16 0 -2
BITMAP 
0000
0000
3EF8
0208
0208
0208
0000
0000
0000
0000
0000
0000
0000
0000
0000
0000
ENDCHAR
STARTCHAR U+0013
ENCODING 19
SWIDTH 1000 0
DWIDTH 16 0
BBX 16 16 0 -2
BITMAP 
0000
0000
F780
1080
1080
1080
1080
0000
0000
0000
0000
0000
0000
0000
0000
0000
ENDCHAR
STARTCHAR U+0014
ENCODING 20
SWIDTH 1000 0
DWIDTH 16 0
BBX 16 16 0 -2
BITMAP 
0000
0000
F780
1080
1080
1080
0000
0000
0000
0000
0000
0000
0000
0000
0000
0000
ENDCHAR
STARTCHAR U+0015
ENCODING 21
SWIDTH 1000 0
DWIDTH 16 0
BBX 16 16 0 -2
BITMAP 
0000
0000
0000
0000
0000
4000
4000
4000
4000
4000
4000
7F80
0000
0000
0000
0000
ENDCHAR
STARTCHAR U+0016
ENCODING 22
SWIDTH 1000 0
DWIDTH 16 0
BBX 16 16 0 -2
BITMAP 
0000
0000
2000
2000
2000
2000
2000
3FF8
0000
0000
0000
0000
0000
0000
0000
0000
ENDCHAR
STARTCHAR U+0017
ENCODING 23
SWIDTH 1000 0
DWIDTH 16 0
BBX 16 16 0 -2
BITMAP 
0000
0000
2000
2000
2000
2000
2000
3FF8
0000
0000
0000
0000
0000
0000
0000
0000
ENDCHAR
STARTCHAR U+0018
ENCODING 24
SWIDTH 1000 0
DWIDTH 16 0
BBX 16 16 0 -2
BITMAP 
0000
0000
0000
4000
4000
4000
4000
4000
7F80
0000
0000
0000
0000
0000
0000
0000
ENDCHAR
STARTCHAR U+0019
ENCODING 25
SWIDTH 1000 0
DWIDTH 16 0
BBX 16 16 0 -2
BITMAP 
0000
0000
0000
4000
4000
4000
4000
7F80
0000
0000
0000
0000
0000
0000
0000
0000
ENDCHAR
STARTCHAR U+001A
ENCODING 26
SWIDTH 1000 0
DWIDTH 16 0
BBX 16 16 0 -2
BITMAP 
0000
0000
0000
0000
4000
4000
4000
4000
7E00
0000
0000
0000
0000
0000
0000
0000
ENDCHAR
STARTCHAR U+001B
ENCODING 27
SWIDTH 1000 0
DWIDTH 16 0
BBX 16 16 0 -2
BITMAP 
0000
0000
1000
1000
1000
1FF0
0000
0000
0000
0000
0000
0000
0000
0000
0000
0000
ENDCHAR
STARTCHAR U+001C
ENCODING 28
SWIDTH 1000 0
DWIDTH 16 0
BBX 16 16 0 -2
BITMAP 
0000
0000
1000
1000
1000
1FF0
0000
0000
0000
0000
0000
0000
0000
0000
0000
0000
ENDCHAR
STARTCHAR U+001D
ENCODING 29
SWIDTH 1000 0
DWIDTH 16 0
BBX 16 16 0 -2
BITMAP 
0000
0000
2000
2000
2000
2000
3F80
0000
0000
0000
0000
0000
0000
0000
0000
0000
ENDCHAR
STARTCHAR U+001E
ENCODING 30
SWIDTH 1000 0
DWIDTH 16 0
BBX 16 16 0 -2
BITMAP 
0000
2000
2000
2000
3F80
0000
0000
0000
0000
0000
0000
0000
0000
0000
0000
0000
ENDCHAR
STARTCHAR U+001F
ENCODING 31
SWIDTH 1000 0
DWIDTH 16 0
BBX 16 16 0 -2
BITMAP 
0000
0000
0000
0000
7F80
4000
4000
4000
4000
4000
7F80
0000
0000
0000
0000
0000
ENDCHAR
STARTCHAR U+0020
ENCODING 32
SWIDTH 1000 0
DWIDTH 16 0
BBX 16 16 0 -2
BITMAP 
0000
0000
3FF8
2000
2000
2000
2000
3FF8
0000
0000
0000
0000
0000
0000
0000
0000
ENDCHAR
STARTCHAR U+0021
ENCODING 33
SWIDTH 1000 0
DWIDTH 16 0
BBX 16 16 0 -2
BITMAP 
0000
0000
3FF8
2000
2000
2000
2000
3FF8
0000
0000
0000
0000
0000
0000
0000
0000
ENDCHAR
STARTCHAR U+0022
ENCODING 34
SWIDTH 1000 0
DWIDTH 16 0
BBX 16 16 0 -2
BITMAP 
0000
0000
0000
7F80
4000
4000
4000
7F80
0000
0000
0000
0000
0000
0000
0000
0000
ENDCHAR
STARTCHAR U+0023
ENCODING 35
SWIDTH 1000 0
DWIDTH 16 0
BBX 16 16 0 -2
BITMAP 
0000
0000
0000
7FC0
4000
4000
4000
7FC0
0000
0000
0000
0000
0000
0000
0000
0000
ENDCHAR
STARTCHAR U+0024
ENCODING 36
SWIDTH 1000 0
DWIDTH 16 0
BBX 16 16 0 -2
BITMAP 
0000
0000
0000
7E00
4000
4000
4000
7E00
0000
0000
0000
0000
0000
0000
0000
0000
ENDCHAR
STARTCHAR U+0025
ENCODING 37
SWIDTH 1000 0
DWIDTH 16 0
BBX 16 16 0 -2
BITMAP 
0000
0000
1FF0
1000
1000
1FF0
0000
0000
0000
0000
0000
0000
0000
0000
0000
0000
ENDCHAR
STARTCHAR U+0026
ENCODING 38
SWIDTH 1000 0
DWIDTH 16 0
BBX 16 16 0 -2
BITMAP 
0000
0000
1FF0
1000
1000
1FF0
0000
0000
0000
0000
0000
0000
0000
0000
0000
0000
ENDCHAR
STARTCHAR U+0027
ENCODING 39
SWIDTH 1000 0
DWIDTH 16 0
BBX 16 16 0 -2
BITMAP 
0000
0000
3F80
2000
2000
3F80
0000
0000
0000
0000
0000
0000
0000
0000
0000
0000
ENDCHAR
STARTCHAR U+0028
ENCODING 40
SWIDTH 1000 0
DWIDTH 16 0
BBX 16 16 0 -2
BITMAP 
0000
3F80
2000
2000
3F80
0000
0000
0000
0000
0000
0000
0000
0000
0000
0000
0000
ENDCHAR
STARTCHAR U+0029
ENCODING 41
SWIDTH 1000 0
DWIDTH 16 0
BBX 16 16 0 -2
BITMAP 
0000
0000
0000
0000
7BC0
4200
4200
4200
4200
4200
7BC0
0000
0000
0000
0000
0000
ENDCHAR
STARTCHAR U+002A
ENCODING 42
SWIDTH 1000 0
DWIDTH 16 0
BBX 16 16 0 -2
BITMAP 
0000
0000
3EF8
2080
2080
2080
2080
3EF8
0000
0000
0000
0000
0000
0000
0000
0000
ENDCHAR
STARTCHAR U+002B
ENCODING 43
SWIDTH 1000 0
DWIDTH 16 0
BBX 16 16 0 -2
BITMAP 
0000
0000
3EF8
2080
2080
2080
2080
3EF8
0000
0000
0000
0000
0000
0000
0000
0000
ENDCHAR
STARTCHAR U+002C
ENCODING 44
SWIDTH 1000 0
DWIDTH 16 0
BBX 16 16 0 -2
BITMAP 
0000
0000
0000
7BC0
4200
4200
4200
4200
7BC0
0000
0000
0000
0000
0000
0000
0000
ENDCHAR
STARTCHAR U+002D
ENCODING 45
SWIDTH 1000 0
DWIDTH 16 0
BBX 16 16 0 -2
BITMAP 
0000
0000
7BC0
4200
4200
4200
4200
7BC0
0000
0000
0000
0000
0000
0000
0000
0000
ENDCHAR
STARTCHAR U+002E
ENCODING 46
SWIDTH 1000 0
DWIDTH 16 0
BBX 16 16 0 -2
BITMAP 
0000
0000
0000
7700
4400
4400
4400
7700
0000
0000
0000
0000
0000
0000
0000
0000
ENDCHAR
STARTCHAR U+002F
ENCODING 47
SWIDTH 1000 0
DWIDTH 16 0
BBX 16 16 0 -2
BITMAP 
0000
0000
1EF0
1080
1080
1EF0
0000
0000
0000
0000
0000
0000
0000
0000
0000
0000
ENDCHAR
STARTCHAR U+0030
ENCODING 48
SWIDTH 1000 0
DWIDTH 16 0
BBX 16 16 0 -2
BITMAP 
0000
0000
1EF0
1080
1080
1EF0
0000
0000
0000
0000
0000
0000
0000
0000
0000
0000
ENDCHAR
STARTCHAR U+0031
ENCODING 49
SWIDTH 1000 0
DWIDTH 16 0
BBX 16 16 0 -2
BITMAP 
0000
0000
3B80
2200
2200
3B80
0000
0000
0000
0000
0000
0000
0000
0000
0000
0000
ENDCHAR
STARTCHAR U+0032
ENCODING 50
SWIDTH 1000 0
DWIDTH 16 0
BBX 16 16 0 -2
BITMAP 
0000
7700
4400
4400
7700
0000
0000
0000
0000
0000
0000
0000
0000
0000
0000
0000
ENDCHAR
STARTCHAR U+0033
ENCODING 51
SWIDTH 1000 0
DWIDTH 16 0
BBX 16 16 0 -2
BITMAP 
0000
0000
0000
0000
3F80
0080
0080
3F80
2000
2000
2000
3F80
0000
0000
0000
0000
ENDCHAR
STARTCHAR U+0034
ENCODING 52
SWIDTH 1000 0
DWIDTH 16 0
BBX 16 16 0 -2
BITMAP 
0000
0000
1FF0
0010
0010
1FF0
1000
1000
1FF0
0000
0000
0000
0000
0000
0000
0000
ENDCHAR
STARTCHAR U+0035
ENCODING 53
SWIDTH 1000 0
DWIDTH 16 0
BBX 16 16 0 -2
BITMAP 
0000
0000
1FF0
0010
0010
1FF0
1000
1000
1FF0
0000
0000
0000
0000
0000
0000
0000
ENDCHAR
STARTCHAR U+0036
ENCODING 54
SWIDTH 1000 0
DWIDTH 16 0
BBX 16 16 0 -2
BITMAP 
0000
0000
0000
3F80
0080
0080
3F80
2000
2000
3F80
0000
0000
0000
0000
0000
0000
ENDCHAR
STARTCHAR U+0037
ENCODING 55
SWIDTH 1000 0
DWIDTH 16 0
BBX 16 16 0 -2
BITMAP 
0000
0000
3FC0
0040
0040
3FC0
2000
2000
3FC0
0000
0000
0000
0000
0000
0000
0000
ENDCHAR
STARTCHAR U+0038
ENCODING 56
SWIDTH 1000 0
DWIDTH 16 0
BBX 16 16 0 -2
BITMAP 
0000
0000
0000
3F00
0100
3F00
2000
3F00
0000
0000
0000
0000
0000
0000
0000
0000
ENDCHAR
STARTCHAR U+0039
ENCODING 57
SWIDTH 1000 0
DWIDTH 16 0
BBX 16 16 0 -2
BITMAP 
0000
1FF0
0010
1FF0
1000
1FF0
0000
0000
0000
0000
0000
0000
0000
0000
0000
0000
ENDCHAR
STARTCHAR U+003A
ENCODING 58
SWIDTH 1000 0
DWIDTH 16 0
BBX 16 16 0 -2
BITMAP 
0000
1FF0
0010
1FF0
1000
1FF0
0000
0000
0000
0000
0000
0000
0000
0000
0000
0000
ENDCHAR
STARTCHAR U+003B
ENCODING 59
SWIDTH 1000 0
DWIDTH 16 0
BBX 16 16 0 -2
BITMAP 
0000
0000
3F80
0080
3F80
2000
3F80
0000
0000
0000
0000
0000
0000
0000
0000
0000
ENDCHAR
STARTCHAR U+003C
ENCODING 60
SWIDTH 1000 0
DWIDTH 16 0
BBX 16 16 0 -2
BITMAP 
7F80
0080
7F80
4000
7F80
0000
0000
0000
0000
0000
0000
0000
0000
0000
0000
0000
ENDCHAR
STARTCHAR U+003D
ENCODING 61
SWIDTH 1000 0
DWIDTH 16 0
BBX 16 16 0 -2
BITMAP 
0000
0000
0000
0000
7F80
4080
4080
4080
4080
4080
4080
7F80
0000
0000
0000
0000
ENDCHAR
STARTCHAR U+003E
ENCODING 62
SWIDTH 1000 0
DWIDTH 16 0
BBX 16 16 0 -2
BITMAP 
0000
0000
3FF8
2008
2008
2008
2008
3FF8
0000
0000
0000
0000
0000
0000
0000
0000
ENDCHAR
STARTCHAR U+003F
ENCODING 63
SWIDTH 1000 0
DWIDTH 16 0
BBX 16 16 0 -2
BITMAP 
0000
0000
3FF8
2008
2008
2008
2008
2008
3FF8
0000
0000
0000
0000
0000
0000
0000
ENDCHAR
STARTCHAR U+0040
ENCODING 64
SWIDTH 1000 0
DWIDTH 16 0
BBX 16 16 0 -2
BITMAP 
0000
0000
0000
3F80
2080
2080
2080
2080
2080
3F80
0000
0000
0000
0000
0000
0000
ENDCHAR
STARTCHAR U+0041
ENCODING 65
SWIDTH 1000 0
DWIDTH 16 0
BBX 16 16 0 -2
BITMAP 
0000
0000
3FC0
2040
2040
2040
2040
2040
3FC0
0000
0000
0000
0000
0000
0000
0000
ENDCHAR
STARTCHAR U+0042
ENCODING 66
SWIDTH 1000 0
DWIDTH 16 0
BBX 16 16 0 -2
BITMAP 
0000
0000
7E00
4200
4200
4200
4200
7E00
0000
0000
0000
0000
0000
0000
0000
0000
ENDCHAR
STARTCHAR U+0043
ENCODING 67
SWIDTH 1000 0
DWIDTH 16 0
BBX 16 16 0 -2
BITMAP 
0000
1FF0
1010
1010
1010
1FF0
0000
0000
0000
0000
0000
0000
0000
0000
0000
0000
ENDCHAR
STARTCHAR U+0044
ENCODING 68
SWIDTH 1000 0
DWIDTH 16 0
BBX 16 16 0 -2
BITMAP 
0000
1FF0
1010
1010
1010
1FF0
0000
0000
0000
0000
0000
0000
0000
0000
0000
0000
ENDCHAR
STARTCHAR U+0045
ENCODING 69
SWIDTH 1000 0
DWIDTH 16 0
BBX 16 16 0 -2
BITMAP 
0000
0000
3F80
2080
2080
2080
3F80
0000
0000
0000
0000
0000
0000
0000
0000
0000
ENDCHAR
STARTCHAR U+0046
ENCODING 70
SWIDTH 1000 0
DWIDTH 16 0
BBX 16 16 0 -2
BITMAP 
0000
3F80
2080
2080
3F80
0000
0000
0000
0000
0000
0000
0000
0000
0000
0000
0000
ENDCHAR
STARTCHAR U+0047
ENCODING 71
SWIDTH 1000 0
DWIDTH 16 0
BBX 16 16 0 -2
BITMAP 
0000
0000
0000
0000
2080
2080
2080
3F80
2080
2080
2080
3F80
0000
0000
0000
0000
ENDCHAR
STARTCHAR U+0048
ENCODING 72
SWIDTH 1000 0
DWIDTH 16 0
BBX 16 16 0 -2
BITMAP 
0000
0000
1010
1010
1010
1FF0
1010
1010
1FF0
0000
0000
0000
0000
0000
0000
0000
ENDCHAR
STARTCHAR U+0049
ENCODING 73
SWIDTH 1000 0
DWIDTH 16 0
BBX 16 16 0 -2
BITMAP 
0000
0000
1010
1010
1010
1FF0
1010
1010
1FF0
0000
0000
0000
0000
0000
0000
0000
ENDCHAR
STARTCHAR U+004A
ENCODING 74
SWIDTH 1000 0
DWIDTH 16 0
BBX 16 16 0 -2
BITMAP 
0000
0000
0000
2080
2080
2080
3F80
2080
2080
3F80
0000
0000
0000
0000
0000
0000
ENDCHAR
STARTCHAR U+004B
ENCODING 75
SWIDTH 1000 0
DWIDTH 16 0
BBX 16 16 0 -2
BITMAP 
0000
0000
2080
2080
2080
3F80
2080
2080
3F80
0000
0000
0000
0000
0000
0000
0000
ENDCHAR
STARTCHAR U+004C
ENCODING 76
SWIDTH 1000 0
DWIDTH 16 0
BBX 16 16 0 -2
BITMAP 
0000
0000
0000
4200
4200
7E00
4200
7E00
0000
0000
0000
0000
0000
0000
0000
0000
ENDCHAR
STARTCHAR U+004D
ENCODING 77
SWIDTH 1000 0
DWIDTH 16 0
BBX 16 16 0 -2
BITMAP 
0000
1010
1010
1FF0
1010
1FF0
0000
0000
0000
0000
0000
0000
0000
0000
0000
0000
ENDCHAR
STARTCHAR U+004E
ENCODING 78
SWIDTH 1000 0
DWIDTH 16 0
BBX 16 16 0 -2
BITMAP 
0000
1010
1010
1FF0
1010
1FF0
0000
0000
0000
0000
0000
0000
0000
0000
0000
0000
ENDCHAR
STARTCHAR U+004F
ENCODING 79
SWIDTH 1000 0
DWIDTH 16 0
BBX 16 16 0 -2
BITMAP 
0000
0000
2080
2080
3F80
2080
3F80
0000
0000
0000
0000
0000
0000
0000
0000
0000
ENDCHAR
STARTCHAR U+0050
ENCODING 80
SWIDTH 1000 0
DWIDTH 16 0
BBX 16 16 0 -2
BITMAP 
2080
2080
3F80
2080
3F80
0000
0000
0000
0000
0000
0000
0000
0000
0000
0000
0000
ENDCHAR
STARTCHAR U+0051
ENCODING 81
SWIDTH 1000 0
DWIDTH 16 0
BBX 16 16 0 -2
BITMAP 
0000
0000
0000
0000
2480
2480
2480
3F80
2480
2480
3F80
0000
0000
0000
0000
0000
ENDCHAR
STARTCHAR U+0052
ENCODING 82
SWIDTH 1000 0
DWIDTH 16 0
BBX 16 16 0 -2
BITMAP 
0000
0000
2108
2108
2108
3FF8
2108
2108
3FF8
0000
0000
0000
0000
0000
0000
0000
ENDCHAR
STARTCHAR U+0053
ENCODING 83
SWIDTH 1000 0
DWIDTH 16 0
BBX 16 16 0 -2
BITMAP 
0000
0000
2108
2108
2108
3FF8
2108
2108
3FF8
0000
0000
0000
0000
0000
0000
0000
ENDCHAR
STARTCHAR U+0054
ENCODING 84
SWIDTH 1000 0
DWIDTH 16 0
BBX 16 16 0 -2
BITMAP 
0000
0000
0000
4440
4440
4440
7FC0
4440
4440
7FC0
0000
0000
0000
0000
0000
0000
ENDCHAR
STARTCHAR U+0055
ENCODING 85
SWIDTH 1000 0
DWIDTH 16 0
BBX 16 16 0 -2
BITMAP 
0000
0000
4440
4440
4440
7FC0
4440
4440
7FC0
0000
0000
0000
0000
0000
0000
0000
ENDCHAR
STARTCHAR U+0056
ENCODING 86
SWIDTH 1000 0
DWIDTH 16 0
BBX 16 16 0 -2
BITMAP 
0000
0000
4900
4900
4900
7F00
4900
7F00
0000
0000
0000
0000
0000
0000
0000
0000
ENDCHAR
STARTCHAR U+0057
ENCODING 87
SWIDTH 1000 0
DWIDTH 16 0
BBX 16 16 0 -2
BITMAP 
0000
2108
2108
3FF8
2108
3FF8
0000
0000
0000
0000
0000
0000
0000
0000
0000
0000
ENDCHAR
STARTCHAR U+0058
ENCODING 88
SWIDTH 1000 0
DWIDTH 16 0
BBX 16 16 0 -2
BITMAP 
0000
2108
2108
3FF8
2108
3FF8
0000
0000
0000
0000
0000
0000
0000
0000
0000
0000
ENDCHAR
STARTCHAR U+0059
ENCODING 89
SWIDTH 1000 0
DWIDTH 16 0
BBX 16 16 0 -2
BITMAP 
0000
2480
2480
3F80
2480
3F80
0000
0000
0000
0000
0000
0000
0000
0000
0000
0000
ENDCHAR
STARTCHAR U+005A
ENCODING 90
SWIDTH 1000 0
DWIDTH 16 0
BBX 16 16 0 -2
BITMAP 
2480
2480
3F80
2480
3F80
0000
0000
0000
0000
0000
0000
0000
0000
0000
0000
0000
ENDCHAR
STARTCHAR U+005B
ENCODING 91
SWIDTH 1000 0
DWIDTH 16 0
BBX 16 16 0 -2
BITMAP 
0000
0000
0000
0000
0200
0200
0400
0400
0A00
1100
6080
0000
0000
0000
0000
0000
ENDCHAR
STARTCHAR U+005C
ENCODING 92
SWIDTH 1000 0
DWIDTH 16 0
BBX 16 16 0 -2
BITMAP 
0000
0000
0080
0080
0100
0100
0280
0440
1820
0000
0000
0000
0000
0000
0000
0000
ENDCHAR
STARTCHAR U+005D
ENCODING 93
SWIDTH 1000 0
DWIDTH 16 0
BBX 16 16 0 -2
BITMAP 
0000
0000
0080
0080
0100
0100
0280
0440
1820
0000
0000
0000
0000
0000
0000
0000
ENDCHAR
STARTCHAR U+005E
ENCODING 94
SWIDTH 1000 0
DWIDTH 16 0
BBX 16 16 0 -2
BITMAP 
0000
0000
0000
0200
0200
0400
0400
0A00
1100
6080
0000
0000
0000
0000
0000
0000
ENDCHAR
STARTCHAR U+005F
ENCODING 95
SWIDTH 1000 0
DWIDTH 16 0
BBX 16 16 0 -2
BITMAP 
0000
0000
0200
0200
0400
0400
0A00
1100
6080
0000
0000
0000
0000
0000
0000
0000
ENDCHAR
STARTCHAR U+0060
ENCODING 96
SWIDTH 1000 0
DWIDTH 16 0
BBX 16 16 0 -2
BITMAP 
0000
0000
0000
0400
0400
0C00
1200
6100
0000
0000
0000
0000
0000
0000
0000
0000
ENDCHAR
STARTCHAR U+0061
ENCODING 97
SWIDTH 1000 0
DWIDTH 16 0
BBX 16 16 0 -2
BITMAP 
0000
0080
0080
0180
0240
0C20
0000
0000
0000
0000
0000
0000
0000
0000
0000
0000
ENDCHAR
STARTCHAR U+0062
ENCODING 98
SWIDTH 1000 0
DWIDTH 16 0
BBX 16 16 0 -2
BITMAP 
0000
0080
0080
0180
0240
0C20
0000
0000
0000
0000
0000
0000
0000
0000
0000
0000
ENDCHAR
STARTCHAR U+0063
ENCODING 99
SWIDTH 1000 0
DWIDTH 16 0
BBX 16 16 0 -2
BITMAP 
0000
0200
0200
0600
0900
3080
0000
0000
0000
0000
0000
0000
0000
0000
0000
0000
ENDCHAR
STARTCHAR U+0064
ENCODING 100
SWIDTH 1000 0
DWIDTH 16 0
BBX 16 16 0 -2
BITMAP 
0200
0200
0600
0900
3080
0000
0000
0000
0000
0000
0000
0000
0000
0000
0000
0000
ENDCHAR
STARTCHAR U+0065
ENCODING 101
SWIDTH 1000 0
DWIDTH 16 0
BBX 16 16 0 -2
BITMAP 
0000
0000
0000
0000
0880
0880
0880
1900
1500
2280
CC40
0000
0000
0000
0000
0000
ENDCHAR
STARTCHAR U+0066
ENCODING 102
SWIDTH 1000 0
DWIDTH 16 0
BBX 16 16 0 -2
BITMAP 
0000
0000
0000
0220
0220
0220
0640
0540
08A0
3310
0000
0000
0000
0000
0000
0000
ENDCHAR
STARTCHAR U+0067
ENCODING 103
SWIDTH 1000 0
DWIDTH 16 0
BBX 16 16 0 -2
BITMAP 
0000
0000
0220
0220
0220
0640
0540
08A0
3310
0000
0000
0000
0000
0000
0000
0000
ENDCHAR
STARTCHAR U+0068
ENCODING 104
SWIDTH 1000 0
DWIDTH 16 0
BBX 16 16 0 -2
BITMAP 
0000
0000
0000
0880
0880
0880
1900
1500
2280
CC40
0000
0000
0000
0000
0000
0000
ENDCHAR
STARTCHAR U+0069
ENCODING 105
SWIDTH 1000 0
DWIDTH 16 0
BBX 16 16 0 -2
BITMAP 
0000
0000
0880
0880
0880
1900
1500
2280
CC40
0000
0000
0000
0000
0000
0000
0000
ENDCHAR
STARTCHAR U+006A
ENCODING 106
SWIDTH 1000 0
DWIDTH 16 0
BBX 16 16 0 -2
BITMAP 
0000
0000
0000
1200
1200
3400
2A00
4900
0000
0000
0000
0000
0000
0000
0000
0000
ENDCHAR
STARTCHAR U+006B
ENCODING 107
SWIDTH 1000 0
DWIDTH 16 0
BBX 16 16 0 -2
BITMAP 
0000
0000
0220
0220
0440
0AA0
1110
0000
0000
0000
0000
0000
0000
0000
0000
0000
ENDCHAR
STARTCHAR U+006C
ENCODING 108
SWIDTH 1000 0
DWIDTH 16 0
BBX 16 16 0 -2
BITMAP 
0000
0000
0220
0220
0440
0AA0
1110
0000
0000
0000
0000
0000
0000
0000
0000
0000
ENDCHAR
STARTCHAR U+006D
ENCODING 109
SWIDTH 1000 0
DWIDTH 16 0
BBX 16 16 0 -2
BITMAP 
0000
0880
0880
1100
2A80
4440
0000
0000
0000
0000
0000
0000
0000
0000
0000
0000
ENDCHAR
STARTCHAR U+006E
ENCODING 110
SWIDTH 1000 0
DWIDTH 16 0
BBX 16 16 0 -2
BITMAP 
0000
0880
0880
1100
2A80
4440
0000
0000
0000
0000
0000
0000
0000
0000
0000
0000
ENDCHAR
STARTCHAR U+006F
ENCODING 111
SWIDTH 1000 0
DWIDTH 16 0
BBX 16 16 0 -2
BITMAP 
0000
0000
0000
0000
1E00
2100
4080
4080
4080
2100
1E00
0000
0000
0000
0000
0000
ENDCHAR
STARTCHAR U+0070
ENCODING 112
SWIDTH 1000 0
DWIDTH 16 0
BBX 16 16 0 -2
BITMAP 
0000
07C0
0820
1010
1010
1010
0820
07C0
0000
0000
0000
0000
0000
0000
0000
0000
ENDCHAR
STARTCHAR U+0071
ENCODING 113
SWIDTH 1000 0
DWIDTH 16 0
BBX 16 16 0 -2
BITMAP 
0000
0000
07C0
0820
1010
1010
1010
0820
07C0
0000
0000
0000
0000
0000
0000
0000
ENDCHAR
STARTCHAR U+0072
ENCODING 114
SWIDTH 1000 0
DWIDTH 16 0
BBX 16 16 0 -2
BITMAP 
0000
0000
0000
1F00
2080
4040
4040
4040
2080
1F00
0000
0000
0000
0000
0000
0000
ENDCHAR
STARTCHAR U+0073
ENCODING 115
SWIDTH 1000 0
DWIDTH 16 0
BBX 16 16 0 -2
BITMAP 
0000
0000
1F00
2080
4040
4040
4040
2080
1F00
0000
0000
0000
0000
0000
0000
0000
ENDCHAR
STARTCHAR U+0074
ENCODING 116
SWIDTH 1000 0
DWIDTH 16 0
BBX 16 16 0 -2
BITMAP 
0000
0000
1E00
2100
2100
2100
2100
1E00
0000
0000
0000
0000
0000
0000
0000
0000
ENDCHAR
STARTCHAR U+0075
ENCODING 117
SWIDTH 1000 0
DWIDTH 16 0
BBX 16 16 0 -2
BITMAP 
0000
07C0
0820
0820
0820
07C0
0000
0000
0000
0000
0000
0000
0000
0000
0000
0000
ENDCHAR
STARTCHAR U+0076
ENCODING 118
SWIDTH 1000 0
DWIDTH 16 0
BBX 16 16 0 -2
BITMAP 
0000
07C0
0820
0820
0820
07C0
0000
0000
0000
0000
0000
0000
0000
0000
0000
0000
ENDCHAR
STARTCHAR U+0077
ENCODING 119
SWIDTH 1000 0
DWIDTH 16 0
BBX 16 16 0 -2
BITMAP 
0000
0000
1F00
2080
2080
2080
1F00
0000
0000
0000
0000
0000
0000
0000
0000
0000
ENDCHAR
STARTCHAR U+0078
ENCODING 120
SWIDTH 1000 0
DWIDTH 16 0
BBX 16 16 0 -2
BITMAP 
1F00
2080
2080
2080
1F00
0000
0000
0000
0000
0000
0000
0000
0000
0000
0000
0000
ENDCHAR
STARTCHAR U+0079
ENCODING 121
SWIDTH 1000 0
DWIDTH 16 0
BBX 16 16 0 -2
BITMAP 
0000
0000
0000
0000
3F80
0100
0100
0200
0600
0900
3080
0000
0000
0000
0000
0000
ENDCHAR
STARTCHAR U+007A
ENCODING 122
SWIDTH 1000 0
DWIDTH 16 0
BBX 16 16 0 -2
BITMAP 
0000
0000
0FE0
0040
0040
0080
0180
0240
0C20
0000
0000
0000
0000
0000
0000
0000
ENDCHAR
STARTCHAR U+007B
ENCODING 123
SWIDTH 1000 0
DWIDTH 16 0
BBX 16 16 0 -2
BITMAP 
0000
0000
0FE0
0040
0040
0080
0180
0240
0C20
0000
0000
0000
0000
0000
0000
0000
ENDCHAR
STARTCHAR U+007C
ENCODING 124
SWIDTH 1000 0
DWIDTH 16 0
BBX 16 16 0 -2
BITMAP 
0000
0000
0000
3F80
0100
0100
0200
0600
0900
3080
0000
0000
0000
0000
0000
0000
ENDCHAR
STARTCHAR U+007D
ENCODING 125
SWIDTH 1000 0
DWIDTH 16 0
BBX 16 16 0 -2
BITMAP 
0000
0000
3F80
0100
0100
0200
0600
0900
3080
0000
0000
0000
0000
0000
0000
0000
ENDCHAR
STARTCHAR U+007E
ENCODING 126
SWIDTH 1000 0
DWIDTH 16 0
BBX 16 16 0 -2
BITMAP 
0000
0000
0000
7E00
0400
0400
1A00
6100
0000
0000
0000
0000
0000
0000
0000
0000
ENDCHAR
STARTCHAR U+007F
ENCODING 127
SWIDTH 1000 0
DWIDTH 16 0
BBX 16 16 0 -2
BITMAP 
0000
0FC0
0080
0340
0C20
0000
0000
0000
0000
0000
0000
0000
0000
0000
0000
0000
ENDCHAR
STARTCHAR U+0080
ENCODING 128
SWIDTH 1000 0
DWIDTH 16 0
BBX 16 16 0 -2
BITMAP 
0000
0FC0
0080
0080
0340
0C20
0000
0000
0000
0000
0000
0000
0000
0000
0000
0000
ENDCHAR
STARTCHAR U+0081
ENCODING 129
SWIDTH 1000 0
DWIDTH 16 0
BBX 16 16 0 -2
BITMAP 
0000
0000
3F00
0200
0D00
3080
0000
0000
0000
0000
0000
0000
0000
0000
0000
0000
ENDCHAR
STARTCHAR U+0082
ENCODING 130
SWIDTH 1000 0
DWIDTH 16 0
BBX 16 16 0 -2
BITMAP 
3F00
0200
0200
0D00
3080
0000
0000
0000
0000
0000
0000
0000
0000
0000
0000
0000
ENDCHAR
STARTCHAR U+0083
ENCODING 131
SWIDTH 1000 0
DWIDTH 16 0
BBX 16 16 0 -2
BITMAP 
0000
0000
0000
0000
7B80
0880
0880
1900
1500
2280
CC40
0000
0000
0000
0000
0000
ENDCHAR
STARTCHAR U+0084
ENCODING 132
SWIDTH 1000 0
DWIDTH 16 0
BBX 16 16 0 -2
BITMAP 
0000
0000
0000
1EE0
0220
0220
0640
0540
08A0
3310
0000
0000
0000
0000
0000
0000
ENDCHAR
STARTCHAR U+0085
ENCODING 133
SWIDTH 1000 0
DWIDTH 16 0
BBX 16 16 0 -2
BITMAP 
0000
0000
1EE0
0220
0220
0640
0540
08A0
3310
0000
0000
0000
0000
0000
0000
0000
ENDCHAR
STARTCHAR U+0086
ENCODING 134
SWIDTH 1000 0
DWIDTH 16 0
BBX 16 16 0 -2
BITMAP 
0000
0000
0000
7B80
0880
0880
1900
1500
2280
CC40
0000
0000
0000
0000
0000
0000
ENDCHAR
STARTCHAR U+0087
ENCODING 135
SWIDTH 1000 0
DWIDTH 16 0
BBX 16 16 0 -2
BITMAP 
0000
0000
7B80
0880
0880
1900
1500
2280
CC40
0000
0000
0000
0000
0000
0000
0000
ENDCHAR
STARTCHAR U+0088
ENCODING 136
SWIDTH 1000 0
DWIDTH 16 0
BBX 16 16 0 -2
BITMAP 
0000
0000
0000
7700
2200
2200
5500
8880
0000
0000
0000
0000
0000
0000
0000
0000
ENDCHAR
STARTCHAR U+0089
ENCODING 137
SWIDTH 1000 0
DWIDTH 16 0
BBX 16 16 0 -2
BITMAP 
0000
3DE0
0440
0880
1540
2220
0000
0000
0000
0000
0000
0000
0000
0000
0000
0000
ENDCHAR
STARTCHAR U+008A
ENCODING 138
SWIDTH 1000 0
DWIDTH 16 0
BBX 16 16 0 -2
BITMAP 
0000
3DE0
0440
0880
1540
2220
0000
0000
0000
0000
0000
0000
0000
0000
0000
0000
ENDCHAR
STARTCHAR U+008B
ENCODING 139
SWIDTH 1000 0
DWIDTH 16 0
BBX 16 16 0 -2
BITMAP 
0000
7BC0
0880
1100
2A80
4440
0000
0000
0000
0000
0000
0000
0000
0000
0000
0000
ENDCHAR
STARTCHAR U+008C
ENCODING 140
SWIDTH 1000 0
DWIDTH 16 0
BBX 16 16 0 -2
BITMAP 
7BC0
0880
1100
2A80
4440
0000
0000
0000
0000
0000
0000
0000
0000
0000
0000
0000
ENDCHAR
STARTCHAR U+008D
ENCODING 141
SWIDTH 1000 0
DWIDTH 16 0
BBX 16 16 0 -2
BITMAP 
0000
0000
0000
0400
0400
3F80
0100
0200
0600
0900
3080
0000
0000
0000
0000
0000
ENDCHAR
STARTCHAR U+008E
ENCODING 142
SWIDTH 1000 0
DWIDTH 16 0
BBX 16 16 0 -2
BITMAP 
0000
0100
0100
0FE0
0040
0080
0180
0240
0C20
0000
0000
0000
0000
0000
0000
0000
ENDCHAR
STARTCHAR U+008F
ENCODING 143
SWIDTH 1000 0
DWIDTH 16 0
BBX 16 16 0 -2
BITMAP 
0000
0080
0080
07F0
0020
0040
00C0
0120
0610
0000
0000
0000
0000
0000
0000
0000
ENDCHAR
STARTCHAR U+0090
ENCODING 144
SWIDTH 1000 0
DWIDTH 16 0
BBX 16 16 0 -2
BITMAP 
0000
0000
0400
0400
3F80
0100
0200
0600
0900
3080
0000
0000
0000
0000
0000
0000
ENDCHAR
STARTCHAR U+0091
ENCODING 145
SWIDTH 1000 0
DWIDTH 16 0
BBX 16 16 0 -2
BITMAP 
0000
0400
0400
3F80
0100
0200
0600
0900
3080
0000
0000
0000
0000
0000
0000
0000
ENDCHAR
STARTCHAR U+0092
ENCODING 146
SWIDTH 1000 0
DWIDTH 16 0
BBX 16 16 0 -2
BITMAP 
0000
0000
0000
0800
7E00
0800
1400
6200
0000
0000
0000
0000
0000
0000
0000
0000
ENDCHAR
STARTCHAR U+0093
ENCODING 147
SWIDTH 1000 0
DWIDTH 16 0
BBX 16 16 0 -2
BITMAP 
0000
0100
0FC0
0100
0280
0C40
0000
0000
0000
0000
0000
0000
0000
0000
0000
0000
ENDCHAR
STARTCHAR U+0094
ENCODING 148
SWIDTH 1000 0
DWIDTH 16 0
BBX 16 16 0 -2
BITMAP 
0000
0100
0FC0
0100
0280
0C40
0000
0000
0000
0000
0000
0000
0000
0000
0000
0000
ENDCHAR
STARTCHAR U+0095
ENCODING 149
SWIDTH 1000 0
DWIDTH 16 0
BBX 16 16 0 -2
BITMAP 
0000
0200
1F80
0200
0500
1880
0000
0000
0000
0000
0000
0000
0000
0000
0000
0000
ENDCHAR
STARTCHAR U+0096
ENCODING 150
SWIDTH 1000 0
DWIDTH 16 0
BBX 16 16 0 -2
BITMAP 
0400
3F00
0400
0A00
3100
0000
0000
0000
0000
0000
0000
0000
0000
0000
0000
0000
ENDCHAR
STARTCHAR U+0097
ENCODING 151
SWIDTH 1000 0
DWIDTH 16 0
BBX 16 16 0 -2
BITMAP 
0000
0000
0000
0000
1F80
0080
0080
0080
1F00
0100
0200
0400
1800
0000
0000
0000
ENDCHAR
STARTCHAR U+0098
ENCODING 152
SWIDTH 1000 0
DWIDTH 16 0
BBX 16 16 0 -2
BITMAP 
0000
0000
0000
0000
3FF8
0008
0008
3FF8
0008
0008
0008
0000
0000
0000
0000
0000
ENDCHAR
STARTCHAR U+0099
ENCODING 153
SWIDTH 1000 0
DWIDTH 16 0
BBX 16 16 0 -2
BITMAP 
0000
0000
0000
3FF8
0008
0008
3FF8
0008
0008
0000
0000
0000
0000
0000
0000
0000
ENDCHAR
STARTCHAR U+009A
ENCODING 154
SWIDTH 1000 0
DWIDTH 16 0
BBX 16 16 0 -2
BITMAP 
0000
0000
0000
0000
3FC0
0040
0040
3FC0
0040
0040
0000
0000
0000
0000
0000
0000
ENDCHAR
STARTCHAR U+009B
ENCODING 155
SWIDTH 1000 0
DWIDTH 16 0
BBX 16 16 0 -2
BITMAP 
0000
0000
0000
3FC0
0040
0040
3FC0
0040
0040
0000
0000
0000
0000
0000
0000
0000
ENDCHAR
STARTCHAR U+009C
ENCODING 156
SWIDTH 1000 0
DWIDTH 16 0
BBX 16 16 0 -2
BITMAP 
0000
0000
7E00
0200
0200
7E00
0400
1800
6000
0000
0000
0000
0000
0000
0000
0000
ENDCHAR
STARTCHAR U+009D
ENCODING 157
SWIDTH 1000 0
DWIDTH 16 0
BBX 16 16 0 -2
BITMAP 
0000
0000
1FF0
0010
1FF0
0010
0010
0000
0000
0000
0000
0000
0000
0000
0000
0000
ENDCHAR
STARTCHAR U+009E
ENCODING 158
SWIDTH 1000 0
DWIDTH 16 0
BBX 16 16 0 -2
BITMAP 
0000
0000
1FF0
0010
1FF0
0010
0010
0000
0000
0000
0000
0000
0000
0000
0000
0000
ENDCHAR
STARTCHAR U+009F
ENCODING 159
SWIDTH 1000 0
DWIDTH 16 0
BBX 16 16 0 -2
BITMAP 
0000
0000
3F80
0080
3F80
0080
0080
0000
0000
0000
0000
0000
0000
0000
0000
0000
ENDCHAR
STARTCHAR U+00A0
ENCODING 160
SWIDTH 1000 0
DWIDTH 16 0
BBX 16 16 0 -2
BITMAP 
0000
3F80
0080
3F80
0080
0080
0000
0000
0000
0000
0000
0000
0000
0000
0000
0000
ENDCHAR
STARTCHAR U+00A1
ENCODING 161
SWIDTH 1000 0
DWIDTH 16 0
BBX 16 16 0 -2
BITMAP 
0000
0000
0000
0000
3F80
2000
2000
3F80
2000
2000
3F80
0000
0000
0000
0000
0000
ENDCHAR
STARTCHAR U+00A2
ENCODING 162
SWIDTH 1000 0
DWIDTH 16 0
BBX 16 16 0 -2
BITMAP 
0000
3FF8
2000
2000
3FF8
2000
2000
3FF8
0000
0000
0000
0000
0000
0000
0000
0000
ENDCHAR
STARTCHAR U+00A3
ENCODING 163
SWIDTH 1000 0
DWIDTH 16 0
BBX 16 16 0 -2
BITMAP 
0000
0000
3FF8
2000
2000
3FF8
2000
2000
3FF8
0000
0000
0000
0000
0000
0000
0000
ENDCHAR
STARTCHAR U+00A4
ENCODING 164
SWIDTH 1000 0
DWIDTH 16 0
BBX 16 16 0 -2
BITMAP 
0000
0000
3FC0
2000
2000
3FC0
2000
2000
3FC0
0000
0000
0000
0000
0000
0000
0000
ENDCHAR
STARTCHAR U+00A5
ENCODING 165
SWIDTH 1000 0
DWIDTH 16 0
BBX 16 16 0 -2
BITMAP 
0000
0000
3FC0
2000
2000
3FC0
2000
2000
3FC0
0000
0000
0000
0000
0000
0000
0000
ENDCHAR
STARTCHAR U+00A6
ENCODING 166
SWIDTH 1000 0
DWIDTH 16 0
BBX 16 16 0 -2
BITMAP 
0000
0000
0000
7E00
4000
7E00
4000
7E00
0000
0000
0000
0000
0000
0000
0000
0000
ENDCHAR
STARTCHAR U+00A7
ENCODING 167
SWIDTH 1000 0
DWIDTH 16 0
BBX 16 16 0 -2
BITMAP 
0000
1FF0
1000
1FF0
1000
1FF0
0000
0000
0000
0000
0000
0000
0000
0000
0000
0000
ENDCHAR
STARTCHAR U+00A8
ENCODING 168
SWIDTH 1000 0
DWIDTH 16 0
BBX 16 16 0 -2
BITMAP 
0000
1FF0
1000
1FF0
1000
1FF0
0000
0000
0000
0000
0000
0000
0000
0000
0000
0000
ENDCHAR
STARTCHAR U+00A9
ENCODING 169
SWIDTH 1000 0
DWIDTH 16 0
BBX 16 16 0 -2
BITMAP 
0000
0000
7F00
4000
7F00
4000
7F00
0000
0000
0000
0000
0000
0000
0000
0000
0000
ENDCHAR
STARTCHAR U+00AA
ENCODING 170
SWIDTH 1000 0
DWIDTH 16 0
BBX 16 16 0 -2
BITMAP 
7F80
4000
7F80
4000
7F80
0000
0000
0000
0000
0000
0000
0000
0000
0000
0000
0000
ENDCHAR
STARTCHAR U+00AB
ENCODING 171
SWIDTH 1000 0
DWIDTH 16 0
BBX 16 16 0 -2
BITMAP 
0000
0000
0000
0000
7FC0
1100
1100
1100
1100
1100
7FC0
0000
0000
0000
0000
0000
ENDCHAR
STARTCHAR U+00AC
ENCODING 172
SWIDTH 1000 0
DWIDTH 16 0
BBX 16 16 0 -2
BITMAP 
0000
0000
3FF8
0820
0820
0820
0820
3FF8
0000
0000
0000
0000
0000
0000
0000
0000
ENDCHAR
STARTCHAR U+00AD
ENCODING 173
SWIDTH 1000 0
DWIDTH 16 0
BBX 16 16 0 -2
BITMAP 
0000
0000
3FF8
0820
0820
0820
0820
3FF8
0000
0000
0000
0000
0000
0000
0000
0000
ENDCHAR
STARTCHAR U+00AE
ENCODING 174
SWIDTH 1000 0
DWIDTH 16 0
BBX 16 16 0 -2
BITMAP 
0000
0000
0000
0000
7FC0
1100
1100
1100
1100
7FC0
0000
0000
0000
0000
0000
0000
ENDCHAR
STARTCHAR U+00AF
ENCODING 175
SWIDTH 1000 0
DWIDTH 16 0
BBX 16 16 0 -2
BITMAP 
0000
0000
0000
7FC0
1100
1100
1100
1100
7FC0
0000
0000
0000
0000
0000
0000
0000
ENDCHAR
STARTCHAR U+00B0
ENCODING 176
SWIDTH 1000 0
DWIDTH 16 0
BBX 16 16 0 -2
BITMAP 
0000
0000
0000
7F80
1200
1200
1200
7F80
0000
0000
0000
0000
0000
0000
0000
0000
ENDCHAR
STARTCHAR U+00B1
ENCODING 177
SWIDTH 1000 0
DWIDTH 16 0
BBX 16 16 0 -2
BITMAP 
0000
1FF0
0440
0440
0440
1FF0
0000
0000
0000
0000
0000
0000
0000
0000
0000
0000
ENDCHAR
STARTCHAR U+00B2
ENCODING 178
SWIDTH 1000 0
DWIDTH 16 0
BBX 16 16 0 -2
BITMAP 
0000
1FF0
0440
0440
0440
1FF0
0000
0000
0000
0000
0000
0000
0000
0000
0000
0000
ENDCHAR
STARTCHAR U+00B3
ENCODING 179
SWIDTH 1000 0
DWIDTH 16 0
BBX 16 16 0 -2
BITMAP 
0000
0000
3F80
1100
1100
3F80
0000
0000
0000
0000
0000
0000
0000
0000
0000
0000
ENDCHAR
STARTCHAR U+00B4
ENCODING 180
SWIDTH 1000 0
DWIDTH 16 0
BBX 16 16 0 -2
BITMAP 
0000
3F80
1100
1100
3F80
0000
0000
0000
0000
0000
0000
0000
0000
0000
0000
0000
ENDCHAR
STARTCHAR U+00B5
ENCODING 181
SWIDTH 1000 0
DWIDTH 16 0
BBX 16 16 0 -2
BITMAP 
0000
0000
0400
0400
3F80
0E00
1100
2080
2080
2080
1100
0E00
0000
0000
0000
0000
ENDCHAR
STARTCHAR U+00B6
ENCODING 182
SWIDTH 1000 0
DWIDTH 16 0
BBX 16 16 0 -2
BITMAP 
0000
0100
0100
0FE0
0000
07C0
0820
0820
07C0
0000
0000
0000
0000
0000
0000
0000
ENDCHAR
STARTCHAR U+00B7
ENCODING 183
SWIDTH 1000 0
DWIDTH 16 0
BBX 16 16 0 -2
BITMAP 
0000
0100
0100
0FE0
0000
07C0
0820
0820
07C0
0000
0000
0000
0000
0000
0000
0000
ENDCHAR
STARTCHAR U+00B8
ENCODING 184
SWIDTH 1000 0
DWIDTH 16 0
BBX 16 16 0 -2
BITMAP 
0000
0000
0400
0400
3F80
0000
1F00
2080
2080
1F00
0000
0000
0000
0000
0000
0000
ENDCHAR
STARTCHAR U+00B9
ENCODING 185
SWIDTH 1000 0
DWIDTH 16 0
BBX 16 16 0 -2
BITMAP 
0000
0400
0400
3F80
0000
1F00
2080
2080
1F00
0000
0000
0000
0000
0000
0000
0000
ENDCHAR
STARTCHAR U+00BA
ENCODING 186
SWIDTH 1000 0
DWIDTH 16 0
BBX 16 16 0 -2
BITMAP 
0000
0800
7F00
1C00
2200
2200
2200
1C00
0000
0000
0000
0000
0000
0000
0000
0000
ENDCHAR
STARTCHAR U+00BB
ENCODING 187
SWIDTH 1000 0
DWIDTH 16 0
BBX 16 16 0 -2
BITMAP 
0100
0FE0
07C0
0820
0820
07C0
0000
0000
0000
0000
0000
0000
0000
0000
0000
0000
ENDCHAR
STARTCHAR U+00BC
ENCODING 188
SWIDTH 1000 0
DWIDTH 16 0
BBX 16 16 0 -2
BITMAP 
0100
0FE0
07C0
0820
0820
07C0
0000
0000
0000
0000
0000
0000
0000
0000
0000
0000
ENDCHAR
STARTCHAR U+00BD
ENCODING 189
SWIDTH 1000 0
DWIDTH 16 0
BBX 16 16 0 -2
BITMAP 
0000
0400
3F80
0E00
1100
1100
0E00
0000
0000
0000
0000
0000
0000
0000
0000
0000
ENDCHAR
STARTCHAR U+00BE
ENCODING 190
SWIDTH 1000 0
DWIDTH 16 0
BBX 16 16 0 -2
BITMAP 
0400
3F80
0E00
1100
0E00
0000
0000
0000
0000
0000
0000
0000
0000
0000
0000
0000
ENDCHAR
STARTCHAR U+00BF
ENCODING 191
SWIDTH 1000 0
DWIDTH 16 0
BBX 16 16 0 -2
BITMAP 
0000
0000
0000
2080
2080
3F80
2080
3F80
1100
2080
1F00
0000
0000
0000
0000
0000
ENDCHAR
STARTCHAR U+00C0
ENCODING 192
SWIDTH 1000 0
DWIDTH 16 0
BBX 16 16 0 -2
BITMAP 
0000
0820
0820
0FE0
0820
0FE0
0440
0820
07C0
0000
0000
0000
0000
0000
0000
0000
ENDCHAR
STARTCHAR U+00C1
ENCODING 193
SWIDTH 1000 0
DWIDTH 16 0
BBX 16 16 0 -2
BITMAP 
0000
0820
0820
0FE0
0820
0FE0
0440
0820
07C0
0000
0000
0000
0000
0000
0000
0000
ENDCHAR
STARTCHAR U+00C2
ENCODING 194
SWIDTH 1000 0
DWIDTH 16 0
BBX 16 16 0 -2
BITMAP 
0000
0000
2100
2100
3F00
2100
3F00
1200
2100
1E00
0000
0000
0000
0000
0000
0000
ENDCHAR
STARTCHAR U+00C3
ENCODING 195
SWIDTH 1000 0
DWIDTH 16 0
BBX 16 16 0 -2
BITMAP 
0000
2100
2100
3F00
2100
3F00
1200
2100
1E00
0000
0000
0000
0000
0000
0000
0000
ENDCHAR
STARTCHAR U+00C4
ENCODING 196
SWIDTH 1000 0
DWIDTH 16 0
BBX 16 16 0 -2
BITMAP 
2100
3F00
2100
3F00
1200
2100
1E00
0000
0000
0000
0000
0000
0000
0000
0000
0000
ENDCHAR
STARTCHAR U+00C5
ENCODING 197
SWIDTH 1000 0
DWIDTH 16 0
BBX 16 16 0 -2
BITMAP 
0820
0FE0
0820
0FE0
0440
0820
07C0
0000
0000
0000
0000
0000
0000
0000
0000
0000
ENDCHAR
STARTCHAR U+00C6
ENCODING 198
SWIDTH 1000 0
DWIDTH 16 0
BBX 16 16 0 -2
BITMAP 
0820
0FE0
0820
0FE0
0440
0820
07C0
0000
0000
0000
0000
0000
0000
0000
0000
0000
ENDCHAR
STARTCHAR U+00C7
ENCODING 199
SWIDTH 1000 0
DWIDTH 16 0
BBX 16 16 0 -2
BITMAP 
2100
3F00
2100
3F00
1200
2100
1E00
0000
0000
0000
0000
0000
0000
0000
0000
0000
ENDCHAR
STARTCHAR U+00C8
ENCODING 200
SWIDTH 1000 0
DWIDTH 16 0
BBX 16 16 0 -2
BITMAP 
2100
3F00
2100
3F00
1200
2100
1E00
0000
0000
0000
0000
0000
0000
0000
0000
0000
ENDCHAR
STARTCHAR U+00C9
ENCODING 201
SWIDTH 1000 0
DWIDTH 16 0
BBX 16 16 0 -2
BITMAP 
0000
0000
0000
0000
9780
9080
9080
F080
9080
9080
F080
0000
0000
0000
0000
0000
ENDCHAR
STARTCHAR U+00CA
ENCODING 202
SWIDTH 1000 0
DWIDTH 16 0
BBX 16 16 0 -2
BITMAP 
0000
12F0
1210
1210
1E10
1210
1210
1E10
0000
0000
0000
0000
0000
0000
0000
0000
ENDCHAR
STARTCHAR U+00CB
ENCODING 203
SWIDTH 1000 0
DWIDTH 16 0
BBX 16 16 0 -2
BITMAP 
0000
0000
12F0
1210
1E10
1210
1210
1E10
0000
0000
0000
0000
0000
0000
0000
0000
ENDCHAR
STARTCHAR U+00CC
ENCODING 204
SWIDTH 1000 0
DWIDTH 16 0
BBX 16 16 0 -2
BITMAP 
0000
0000
4BC0
4840
7840
4840
4840
7840
0000
0000
0000
0000
0000
0000
0000
0000
ENDCHAR
STARTCHAR U+00CD
ENCODING 205
SWIDTH 1000 0
DWIDTH 16 0
BBX 16 16 0 -2
BITMAP 
0000
0000
4BC0
4840
7840
4840
4840
7840
0000
0000
0000
0000
0000
0000
0000
0000
ENDCHAR
STARTCHAR U+00CE
ENCODING 206
SWIDTH 1000 0
DWIDTH 16 0
BBX 16 16 0 -2
BITMAP 
0000
0000
4BC0
4840
7840
4840
7840
0000
0000
0000
0000
0000
0000
0000
0000
0000
ENDCHAR
STARTCHAR U+00CF
ENCODING 207
SWIDTH 1000 0
DWIDTH 16 0
BBX 16 16 0 -2
BITMAP 
0000
12F0
1210
1E10
1210
1E10
0000
0000
0000
0000
0000
0000
0000
0000
0000
0000
ENDCHAR
STARTCHAR U+00D0
ENCODING 208
SWIDTH 1000 0
DWIDTH 16 0
BBX 16 16 0 -2
BITMAP 
0000
12F0
1210
1E10
1210
1E10
0000
0000
0000
0000
0000
0000
0000
0000
0000
0000
ENDCHAR
STARTCHAR U+00D1
ENCODING 209
SWIDTH 1000 0
DWIDTH 16 0
BBX 16 16 0 -2
BITMAP 
0000
0000
4B80
4880
7880
4880
7880
0000
0000
0000
0000
0000
0000
0000
0000
0000
ENDCHAR
STARTCHAR U+00D2
ENCODING 210
SWIDTH 1000 0
DWIDTH 16 0
BBX 16 16 0 -2
BITMAP 
4B80
4880
7880
4880
7880
0000
0000
0000
0000
0000
0000
0000
0000
0000
0000
0000
ENDCHAR
STARTCHAR U+00D3
ENCODING 211
SWIDTH 1000 0
DWIDTH 16 0
BBX 16 16 0 -2
BITMAP 
0000
0000
0000
0000
1780
1080
2080
2080
5080
4880
8480
0000
0000
0000
0000
0000
ENDCHAR
STARTCHAR U+00D4
ENCODING 212
SWIDTH 1000 0
DWIDTH 16 0
BBX 16 16 0 -2
BITMAP 
0000
02F0
0210
0410
0410
0A10
0910
1090
0000
0000
0000
0000
0000
0000
0000
0000
ENDCHAR
STARTCHAR U+00D5
ENCODING 213
SWIDTH 1000 0
DWIDTH 16 0
BBX 16 16 0 -2
BITMAP 
0000
0000
02F0
0210
0410
0410
0A10
0910
1090
0000
0000
0000
0000
0000
0000
0000
ENDCHAR
STARTCHAR U+00D6
ENCODING 214
SWIDTH 1000 0
DWIDTH 16 0
BBX 16 16 0 -2
BITMAP 
0000
0000
0BC0
0840
1040
1040
2840
2440
4240
0000
0000
0000
0000
0000
0000
0000
ENDCHAR
STARTCHAR U+00D7
ENCODING 215
SWIDTH 1000 0
DWIDTH 16 0
BBX 16 16 0 -2
BITMAP 
0000
0BC0
0840
1040
1040
2840
2440
4240
0000
0000
0000
0000
0000
0000
0000
0000
ENDCHAR
STARTCHAR U+00D8
ENCODING 216
SWIDTH 1000 0
DWIDTH 16 0
BBX 16 16 0 -2
BITMAP 
0000
0000
13C0
1040
1040
2840
4440
0000
0000
0000
0000
0000
0000
0000
0000
0000
ENDCHAR
STARTCHAR U+00D9
ENCODING 217
SWIDTH 1000 0
DWIDTH 16 0
BBX 16 16 0 -2
BITMAP 
0000
04F0
0410
0410
0A10
1110
0000
0000
0000
0000
0000
0000
0000
0000
0000
0000
ENDCHAR
STARTCHAR U+00DA
ENCODING 218
SWIDTH 1000 0
DWIDTH 16 0
BBX 16 16 0 -2
BITMAP 
0000
04F0
0410
0410
0A10
1110
0000
0000
0000
0000
0000
0000
0000
0000
0000
0000
ENDCHAR
STARTCHAR U+00DB
ENCODING 219
SWIDTH 1000 0
DWIDTH 16 0
BBX 16 16 0 -2
BITMAP 
0000
0000
1380
1080
1080
2880
4480
0000
0000
0000
0000
0000
0000
0000
0000
0000
ENDCHAR
STARTCHAR U+00DC
ENCODING 220
SWIDTH 1000 0
DWIDTH 16 0
BBX 16 16 0 -2
BITMAP 
1380
1080
1080
2880
4480
0000
0000
0000
0000
0000
0000
0000
0000
0000
0000
0000
ENDCHAR
STARTCHAR U+00DD
ENCODING 221
SWIDTH 1000 0
DWIDTH 16 0
BBX 16 16 0 -2
BITMAP 
0000
0000
0000
0000
9780
9400
9400
F400
9400
9400
F780
0000
0000
0000
0000
0000
ENDCHAR
STARTCHAR U+00DE
ENCODING 222
SWIDTH 1000 0
DWIDTH 16 0
BBX 16 16 0 -2
BITMAP 
0000
12F0
1280
1280
1E80
1280
1280
1EF0
0000
0000
0000
0000
0000
0000
0000
0000
ENDCHAR
STARTCHAR U+00DF
ENCODING 223
SWIDTH 1000 0
DWIDTH 16 0
BBX 16 16 0 -2
BITMAP 
0000
0000
12F0
1280
1280
1E80
1280
1280
1EF0
0000
0000
0000
0000
0000
0000
0000
ENDCHAR
STARTCHAR U+00E0
ENCODING 224
SWIDTH 1000 0
DWIDTH 16 0
BBX 16 16 0 -2
BITMAP 
0000
0000
4BC0
4A00
4A00
7A00
4A00
4A00
7BC0
0000
0000
0000
0000
0000
0000
0000
ENDCHAR
STARTCHAR U+00E1
ENCODING 225
SWIDTH 1000 0
DWIDTH 16 0
BBX 16 16 0 -2
BITMAP 
0000
4BC0
4A00
4A00
7A00
4A00
4A00
7BC0
0000
0000
0000
0000
0000
0000
0000
0000
ENDCHAR
STARTCHAR U+00E2
ENCODING 226
SWIDTH 1000 0
DWIDTH 16 0
BBX 16 16 0 -2
BITMAP 
0000
0000
4BC0
4A00
7A00
4A00
7BC0
0000
0000
0000
0000
0000
0000
0000
0000
0000
ENDCHAR
STARTCHAR U+00E3
ENCODING 227
SWIDTH 1000 0
DWIDTH 16 0
BBX 16 16 0 -2
BITMAP 
0000
12F0
1280
1E80
1280
1EF0
0000
0000
0000
0000
0000
0000
0000
0000
0000
0000
ENDCHAR
STARTCHAR U+00E4
ENCODING 228
SWIDTH 1000 0
DWIDTH 16 0
BBX 16 16 0 -2
BITMAP 
0000
12F0
1280
1E80
1280
1EF0
0000
0000
0000
0000
0000
0000
0000
0000
0000
0000
ENDCHAR
STARTCHAR U+00E5
ENCODING 229
SWIDTH 1000 0
DWIDTH 16 0
BBX 16 16 0 -2
BITMAP 
0000
0000
4B80
4A00
7A00
4A00
7B80
0000
0000
0000
0000
0000
0000
0000
0000
0000
ENDCHAR
STARTCHAR U+00E6
ENCODING 230
SWIDTH 1000 0
DWIDTH 16 0
BBX 16 16 0 -2
BITMAP 
4B80
4A00
7A00
4A00
7B80
0000
0000
0000
0000
0000
0000
0000
0000
0000
0000
0000
ENDCHAR
STARTCHAR U+00E7
ENCODING 231
SWIDTH 1000 0
DWIDTH 16 0
BBX 16 16 0 -2
BITMAP 
0000
0000
0000
0000
13C0
1200
2200
2200
5200
4A00
87C0
0000
0000
0000
0000
0000
ENDCHAR
STARTCHAR U+00E8
ENCODING 232
SWIDTH 1000 0
DWIDTH 16 0
BBX 16 16 0 -2
BITMAP 
0000
04F0
0480
0880
0880
1480
1280
21F0
0000
0000
0000
0000
0000
0000
0000
0000
ENDCHAR
STARTCHAR U+00E9
ENCODING 233
SWIDTH 1000 0
DWIDTH 16 0
BBX 16 16 0 -2
BITMAP 
0000
0000
04F0
0480
0880
0880
1480
1280
21F0
0000
0000
0000
0000
0000
0000
0000
ENDCHAR
STARTCHAR U+00EA
ENCODING 234
SWIDTH 1000 0
DWIDTH 16 0
BBX 16 16 0 -2
BITMAP 
0000
0000
0BC0
0A00
1200
1200
2A00
2600
43C0
0000
0000
0000
0000
0000
0000
0000
ENDCHAR
STARTCHAR U+00EB
ENCODING 235
SWIDTH 1000 0
DWIDTH 16 0
BBX 16 16 0 -2
BITMAP 
0000
0000
0BC0
0A00
1200
1200
2A00
2600
43C0
0000
0000
0000
0000
0000
0000
0000
ENDCHAR
STARTCHAR U+00EC
ENCODING 236
SWIDTH 1000 0
DWIDTH 16 0
BBX 16 16 0 -2
BITMAP 
0000
0000
0BC0
0A00
1200
2A00
47C0
0000
0000
0000
0000
0000
0000
0000
0000
0000
ENDCHAR
STARTCHAR U+00ED
ENCODING 237
SWIDTH 1000 0
DWIDTH 16 0
BBX 16 16 0 -2
BITMAP 
0000
02F0
0280
0480
0A80
11F0
0000
0000
0000
0000
0000
0000
0000
0000
0000
0000
ENDCHAR
STARTCHAR U+00EE
ENCODING 238
SWIDTH 1000 0
DWIDTH 16 0
BBX 16 16 0 -2
BITMAP 
0000
02F0
0280
0480
0A80
11F0
0000
0000
0000
0000
0000
0000
0000
0000
0000
0000
ENDCHAR
STARTCHAR U+00EF
ENCODING 239
SWIDTH 1000 0
DWIDTH 16 0
BBX 16 16 0 -2
BITMAP 
0000
0000
0B80
0A00
1200
2A00
4780
0000
0000
0000
0000
0000
0000
0000
0000
0000
ENDCHAR
STARTCHAR U+00F0
ENCODING 240
SWIDTH 1000 0
DWIDTH 16 0
BBX 16 16 0 -2
BITMAP 
0B80
0A00
1200
2A00
4780
0000
0000
0000
0000
0000
0000
0000
0000
0000
0000
0000
ENDCHAR
STARTCHAR U+00F1
ENCODING 241
SWIDTH 1000 0
DWIDTH 16 0
BBX 16 16 0 -2
BITMAP 
0000
0000
0000
0000
1480
1480
2480
2780
5480
4C80
8780
0000
0000
0000
0000
0000
ENDCHAR
STARTCHAR U+00F2
ENCODING 242
SWIDTH 1000 0
DWIDTH 16 0
BBX 16 16 0 -2
BITMAP 
0000
0490
0490
0890
08F0
1490
1290
21F0
0000
0000
0000
0000
0000
0000
0000
0000
ENDCHAR
STARTCHAR U+00F3
ENCODING 243
SWIDTH 1000 0
DWIDTH 16 0
BBX 16 16 0 -2
BITMAP 
0000
0000
0490
0490
0890
08F0
1490
1290
21F0
0000
0000
0000
0000
0000
0000
0000
ENDCHAR
STARTCHAR U+00F4
ENCODING 244
SWIDTH 1000 0
DWIDTH 16 0
BBX 16 16 0 -2
BITMAP 
0000
0000
0A40
0A40
1240
13C0
2A40
2640
43C0
0000
0000
0000
0000
0000
0000
0000
ENDCHAR
STARTCHAR U+00F5
ENCODING 245
SWIDTH 1000 0
DWIDTH 16 0
BBX 16 16 0 -2
BITMAP 
0000
0000
0A40
0A40
1240
13C0
2A40
2640
43C0
0000
0000
0000
0000
0000
0000
0000
ENDCHAR
STARTCHAR U+00F6
ENCODING 246
SWIDTH 1000 0
DWIDTH 16 0
BBX 16 16 0 -2
BITMAP 
0000
0000
1240
1240
13C0
2A40
47C0
0000
0000
0000
0000
0000
0000
0000
0000
0000
ENDCHAR
STARTCHAR U+00F7
ENCODING 247
SWIDTH 1000 0
DWIDTH 16 0
BBX 16 16 0 -2
BITMAP 
0000
0490
0490
04F0
0A90
11F0
0000
0000
0000
0000
0000
0000
0000
0000
0000
0000
ENDCHAR
STARTCHAR U+00F8
ENCODING 248
SWIDTH 1000 0
DWIDTH 16 0
BBX 16 16 0 -2
BITMAP 
0000
0490
0490
04F0
0A90
11F0
0000
0000
0000
0000
0000
0000
0000
0000
0000
0000
ENDCHAR
STARTCHAR U+00F9
ENCODING 249
SWIDTH 1000 0
DWIDTH 16 0
BBX 16 16 0 -2
BITMAP 
0000
0000
2480
2480
2780
5480
8F80
0000
0000
0000
0000
0000
0000
0000
0000
0000
ENDCHAR
STARTCHAR U+00FA
ENCODING 250
SWIDTH 1000 0
DWIDTH 16 0
BBX 16 16 0 -2
BITMAP 
2480
2480
2780
5480
8F80
0000
0000
0000
0000
0000
0000
0000
0000
0000
0000
0000
ENDCHAR
STARTCHAR U+00FB
ENCODING 251
SWIDTH 1000 0
DWIDTH 16 0
BBX 16 16 0 -2
BITMAP 
0000
0000
0000
0000
4900
4900
4900
7900
4A80
4A80
7C40
0000
0000
0000
0000
0000
ENDCHAR
STARTCHAR U+00FC
ENCODING 252
SWIDTH 1000 0
DWIDTH 16 0
BBX 16 16 0 -2
BITMAP 
0000
0000
1220
1220
1220
1E20
1250
1250
1E88
0000
0000
0000
0000
0000
0000
0000
ENDCHAR
STARTCHAR U+00FD
ENCODING 253
SWIDTH 1000 0
DWIDTH 16 0
BBX 16 16 0 -2
BITMAP 
0000
0000
0000
1220
1220
1E20
1250
1250
1E88
0000
0000
0000
0000
0000
0000
0000
ENDCHAR
STARTCHAR U+00FE
ENCODING 254
SWIDTH 1000 0
DWIDTH 16 0
BBX 16 16 0 -2
BITMAP 
0000
0000
0000
4900
4900
4900
7900
4A80
4A80
7C40
0000
0000
0000
0000
0000
0000
ENDCHAR
STARTCHAR U+00FF
ENCODING 255
SWIDTH 1000 0
DWIDTH 16 0
BBX 16 16 0 -2
BITMAP 
0000
0000
4900
4900
4900
7900
4A80
4A80
7C40
0000
0000
0000
0000
0000
0000
0000
ENDCHAR
STARTCHAR U+0100
ENCODING 256
SWIDTH 1000 0
DWIDTH 16 0
BBX 16 16 0 -2
BITMAP 
0000
0000
5200
5200
7200
5500
7880
0000
0000
0000
0000
0000
0000
0000
0000
0000
ENDCHAR
STARTCHAR U+0101
ENCODING 257
SWIDTH 1000 0
DWIDTH 16 0
BBX 16 16 0 -2
BITMAP 
0000
1240
1240
1E40
12A0
1F10
0000
0000
0000
0000
0000
0000
0000
0000
0000
0000
ENDCHAR
STARTCHAR U+0102
ENCODING 258
SWIDTH 1000 0
DWIDTH 16 0
BBX 16 16 0 -2
BITMAP 
0000
1240
1240
1E40
12A0
1F10
0000
0000
0000
0000
0000
0000
0000
0000
0000
0000
ENDCHAR
STARTCHAR U+0103
ENCODING 259
SWIDTH 1000 0
DWIDTH 16 0
BBX 16 16 0 -2
BITMAP 
0000
4900
4900
7900
4A80
7C40
0000
0000
0000
0000
0000
0000
0000
0000
0000
0000
ENDCHAR
STARTCHAR U+0104
ENCODING 260
SWIDTH 1000 0
DWIDTH 16 0
BBX 16 16 0 -2
BITMAP 
4900
4900
7B80
4A80
7C40
0000
0000
0000
0000
0000
0000
0000
0000
0000
0000
0000
ENDCHAR
STARTCHAR U+0105
ENCODING 261
SWIDTH 1000 0
DWIDTH 16 0
BBX 16 16 0 -2
BITMAP 
0000
0000
0000
0400
0A00
0A00
1100
1100
2080
3F80
0000
0000
0000
0000
0000
0000
ENDCHAR
STARTCHAR U+0106
ENCODING 262
SWIDTH 1000 0
DWIDTH 16 0
BBX 16 16 0 -2
BITMAP 
0100
0280
0280
0440
0440
0820
0FE0
0000
0000
0000
0000
0000
0000
0000
0000
0000
ENDCHAR
STARTCHAR U+0107
ENCODING 263
SWIDTH 1000 0
DWIDTH 16 0
BBX 16 16 0 -2
BITMAP 
0000
0000
0100
0280
0280
0440
0440
0820
0FE0
0000
0000
0000
0000
0000
0000
0000
ENDCHAR
STARTCHAR U+0108
ENCODING 264
SWIDTH 1000 0
DWIDTH 16 0
BBX 16 16 0 -2
BITMAP 
0000
0000
0400
0A00
0A00
1100
1100
2080
3F80
0000
0000
0000
0000
0000
0000
0000
ENDCHAR
STARTCHAR U+0109
ENCODING 265
SWIDTH 1000 0
DWIDTH 16 0
BBX 16 16 0 -2
BITMAP 
0000
0400
0A00
0A00
1100
1100
2080
3F80
0000
0000
0000
0000
0000
0000
0000
0000
ENDCHAR
STARTCHAR U+010A
ENCODING 266
SWIDTH 1000 0
DWIDTH 16 0
BBX 16 16 0 -2
BITMAP 
0000
0000
0000
0800
1400
2200
4100
7F00
0000
0000
0000
0000
0000
0000
0000
0000
ENDCHAR
STARTCHAR U+010B
ENCODING 267
SWIDTH 1000 0
DWIDTH 16 0
BBX 16 16 0 -2
BITMAP 
0000
0100
0280
0440
0820
0FE0
0000
0000
0000
0000
0000
0000
0000
0000
0000
0000
ENDCHAR
STARTCHAR U+010C
ENCODING 268
SWIDTH 1000 0
DWIDTH 16 0
BBX 16 16 0 -2
BITMAP 
0000
0100
0280
0440
0820
0FE0
0000
0000
0000
0000
0000
0000
0000
0000
0000
0000
ENDCHAR
STARTCHAR U+010D
ENCODING 269
SWIDTH 1000 0
DWIDTH 16 0
BBX 16 16 0 -2
BITMAP 
0000
0000
0400
0A00
1100
2080
3F80
0000
0000
0000
0000
0000
0000
0000
0000
0000
ENDCHAR
STARTCHAR U+010E
ENCODING 270
SWIDTH 1000 0
DWIDTH 16 0
BBX 16 16 0 -2
BITMAP 
0400
0A00
1100
2080
3F80
0000
0000
0000
0000
0000
0000
0000
0000
0000
0000
0000
ENDCHAR
STARTCHAR U+010F
ENCODING 271
SWIDTH 1000 0
DWIDTH 16 0
BBX 16 16 0 -2
BITMAP 
0000
0800
0800
3E00
4100
8080
8080
8080
4100
3E00
0000
0000
0000
0000
0000
0000
ENDCHAR
STARTCHAR U+0110
ENCODING 272
SWIDTH 1000 0
DWIDTH 16 0
BBX 16 16 0 -2
BITMAP 
0100
0100
07C0
0820
1010
1010
0820
07C0
0000
0000
0000
0000
0000
0000
0000
0000
ENDCHAR
STARTCHAR U+0111
ENCODING 273
SWIDTH 1000 0
DWIDTH 16 0
BBX 16 16 0 -2
BITMAP 
0000
0100
0100
07C0
0820
1010
1010
0820
07C0
0000
0000
0000
0000
0000
0000
0000
ENDCHAR
STARTCHAR U+0112
ENCODING 274
SWIDTH 1000 0
DWIDTH 16 0
BBX 16 16 0 -2
BITMAP 
0000
0400
0400
1F00
2080
4040
4040
2080
1F00
0000
0000
0000
0000
0000
0000
0000
ENDCHAR
STARTCHAR U+0113
ENCODING 275
SWIDTH 1000 0
DWIDTH 16 0
BBX 16 16 0 -2
BITMAP 
0400
0400
1F00
2080
4040
4040
2080
1F00
0000
0000
0000
0000
0000
0000
0000
0000
ENDCHAR
STARTCHAR U+0114
ENCODING 276
SWIDTH 1000 0
DWIDTH 16 0
BBX 16 16 0 -2
BITMAP 
0000
0400
0400
1F00
2080
2080
2080
1F00
0000
0000
0000
0000
0000
0000
0000
0000
ENDCHAR
STARTCHAR U+0115
ENCODING 277
SWIDTH 1000 0
DWIDTH 16 0
BBX 16 16 0 -2
BITMAP 
0100
0100
07C0
0820
0820
07C0
0000
0000
0000
0000
0000
0000
0000
0000
0000
0000
ENDCHAR
STARTCHAR U+0116
ENCODING 278
SWIDTH 1000 0
DWIDTH 16 0
BBX 16 16 0 -2
BITMAP 
0100
0100
07C0
0820
0820
07C0
0000
0000
0000
0000
0000
0000
0000
0000
0000
0000
ENDCHAR
STARTCHAR U+0117
ENCODING 279
SWIDTH 1000 0
DWIDTH 16 0
BBX 16 16 0 -2
BITMAP 
0400
0400
1F00
2080
2080
2080
1F00
0000
0000
0000
0000
0000
0000
0000
0000
0000
ENDCHAR
STARTCHAR U+0118
ENCODING 280
SWIDTH 1000 0
DWIDTH 16 0
BBX 16 16 0 -2
BITMAP 
0400
0400
1F00
2080
2080
1F00
0000
0000
0000
0000
0000
0000
0000
0000
0000
0000
ENDCHAR
STARTCHAR U+0119
ENCODING 281
SWIDTH 1000 0
DWIDTH 16 0
BBX 16 16 0 -2
BITMAP 
0000
0000
0000
0000
4BC0
4880
7880
4900
4A80
7C40
0000
0000
0000
0000
0000
0000
ENDCHAR
STARTCHAR U+011A
ENCODING 282
SWIDTH 1000 0
DWIDTH 16 0
BBX 16 16 0 -2
BITMAP 
0000
1278
1210
1E10
1220
1250
1E88
0000
0000
0000
0000
0000
0000
0000
0000
0000
ENDCHAR
STARTCHAR U+011B
ENCODING 283
SWIDTH 1000 0
DWIDTH 16 0
BBX 16 16 0 -2
BITMAP 
0000
0000
1278
1210
1E10
1220
1250
1E88
0000
0000
0000
0000
0000
0000
0000
0000
ENDCHAR
STARTCHAR U+011C
ENCODING 284
SWIDTH 1000 0
DWIDTH 16 0
BBX 16 16 0 -2
BITMAP 
0000
0000
4BC0
4880
7880
4900
4A80
7C40
0000
0000
0000
0000
0000
0000
0000
0000
ENDCHAR
STARTCHAR U+011D
ENCODING 285
SWIDTH 1000 0
DWIDTH 16 0
BBX 16 16 0 -2
BITMAP 
0000
4BC0
4880
7880
4900
4A80
7C40
0000
0000
0000
0000
0000
0000
0000
0000
0000
ENDCHAR
STARTCHAR U+011E
ENCODING 286
SWIDTH 1000 0
DWIDTH 16 0
BBX 16 16 0 -2
BITMAP 
0000
0000
4BC0
4880
7900
4A80
7C40
0000
0000
0000
0000
0000
0000
0000
0000
0000
ENDCHAR
STARTCHAR U+011F
ENCODING 287
SWIDTH 1000 0
DWIDTH 16 0
BBX 16 16 0 -2
BITMAP 
0000
12F0
1220
1E40
12A0
1F10
0000
0000
0000
0000
0000
0000
0000
0000
0000
0000
ENDCHAR
STARTCHAR U+0120
ENCODING 288
SWIDTH 1000 0
DWIDTH 16 0
BBX 16 16 0 -2
BITMAP 
0000
0000
12F0
1220
1E40
12A0
1F10
0000
0000
0000
0000
0000
0000
0000
0000
0000
ENDCHAR
STARTCHAR U+0121
ENCODING 289
SWIDTH 1000 0
DWIDTH 16 0
BBX 16 16 0 -2
BITMAP 
0000
0000
9780
9100
F200
9500
F880
0000
0000
0000
0000
0000
0000
0000
0000
0000
ENDCHAR
STARTCHAR U+0122
ENCODING 290
SWIDTH 1000 0
DWIDTH 16 0
BBX 16 16 0 -2
BITMAP 
9780
9100
F200
9500
F880
0000
0000
0000
0000
0000
0000
0000
0000
0000
0000
0000
ENDCHAR
STARTCHAR U+0123
ENCODING 291
SWIDTH 1000 0
DWIDTH 16 0
BBX 16 16 0 -2
BITMAP 
0000
0000
0000
0BC0
0880
0880
1100
1100
2A80
4440
0000
0000
0000
0000
0000
0000
ENDCHAR
STARTCHAR U+0124
ENCODING 292
SWIDTH 1000 0
DWIDTH 16 0
BBX 16 16 0 -2
BITMAP 
0000
02F0
0220
0220
0440
0440
0AA0
1110
0000
0000
0000
0000
0000
0000
0000
0000
ENDCHAR
STARTCHAR U+0125
ENCODING 293
SWIDTH 1000 0
DWIDTH 16 0
BBX 16 16 0 -2
BITMAP 
0000
0000
02F0
0220
0220
0440
0440
0AA0
1110
0000
0000
0000
0000
0000
0000
0000
ENDCHAR
STARTCHAR U+0126
ENCODING 294
SWIDTH 1000 0
DWIDTH 16 0
BBX 16 16 0 -2
BITMAP 
0000
0000
0BC0
0880
0880
1100
1100
2A80
4440
0000
0000
0000
0000
0000
0000
0000
ENDCHAR
STARTCHAR U+0127
ENCODING 295
SWIDTH 1000 0
DWIDTH 16 0
BBX 16 16 0 -2
BITMAP 
0000
0BC0
0880
0880
1100
1100
2A80
4440
0000
0000
0000
0000
0000
0000
0000
0000
ENDCHAR
STARTCHAR U+0128
ENCODING 296
SWIDTH 1000 0
DWIDTH 16 0
BBX 16 16 0 -2
BITMAP 
0000
0000
0BC0
0880
1100
2A80
4440
0000
0000
0000
0000
0000
0000
0000
0000
0000
ENDCHAR
STARTCHAR U+0129
ENCODING 297
SWIDTH 1000 0
DWIDTH 16 0
BBX 16 16 0 -2
BITMAP 
0000
05E0
0440
0880
1540
2220
0000
0000
0000
0000
0000
0000
0000
0000
0000
0000
ENDCHAR
STARTCHAR U+012A
ENCODING 298
SWIDTH 1000 0
DWIDTH 16 0
BBX 16 16 0 -2
BITMAP 
0000
05E0
0440
0880
1540
2220
0000
0000
0000
0000
0000
0000
0000
0000
0000
0000
ENDCHAR
STARTCHAR U+012B
ENCODING 299
SWIDTH 1000 0
DWIDTH 16 0
BBX 16 16 0 -2
BITMAP 
0000
0000
1780
1100
2200
5500
8880
0000
0000
0000
0000
0000
0000
0000
0000
0000
ENDCHAR
STARTCHAR U+012C
ENCODING 300
SWIDTH 1000 0
DWIDTH 16 0
BBX 16 16 0 -2
BITMAP 
1780
1100
2200
5500
8880
0000
0000
0000
0000
0000
0000
0000
0000
0000
0000
0000
ENDCHAR
STARTCHAR U+012D
ENCODING 301
SWIDTH 1000 0
DWIDTH 16 0
BBX 16 16 0 -2
BITMAP 
0000
0000
7F80
0000
1E00
2100
2100
2100
1E00
0000
0000
0000
0000
0000
0000
0000
ENDCHAR
STARTCHAR U+012E
ENCODING 302
SWIDTH 1000 0
DWIDTH 16 0
BBX 16 16 0 -2
BITMAP 
0000
0000
1FF0
0000
07C0
0820
0820
0820
07C0
0000
0000
0000
0000
0000
0000
0000
ENDCHAR
STARTCHAR U+012F
ENCODING 303
SWIDTH 1000 0
DWIDTH 16 0
BBX 16 16 0 -2
BITMAP 
0000
0000
1FF0
0000
07C0
0820
0820
0820
07C0
0000
0000
0000
0000
0000
0000
0000
ENDCHAR
STARTCHAR U+0130
ENCODING 304
SWIDTH 1000 0
DWIDTH 16 0
BBX 16 16 0 -2
BITMAP 
0000
0000
7F80
0000
1E00
2100
2100
2100
1E00
0000
0000
0000
0000
0000
0000
0000
ENDCHAR
STARTCHAR U+0131
ENCODING 305
SWIDTH 1000 0
DWIDTH 16 0
BBX 16 16 0 -2
BITMAP 
0000
0000
7F80
0000
1E00
2100
2100
2100
1E00
0000
0000
0000
0000
0000
0000
0000
ENDCHAR
STARTCHAR U+0132
ENCODING 306
SWIDTH 1000 0
DWIDTH 16 0
BBX 16 16 0 -2
BITMAP 
0000
7F80
0000
1E00
2100
2100
1E00
0000
0000
0000
0000
0000
0000
0000
0000
0000
ENDCHAR
STARTCHAR U+0133
ENCODING 307
SWIDTH 1000 0
DWIDTH 16 0
BBX 16 16 0 -2
BITMAP 
1FF0
0000
07C0
0820
0820
07C0
0000
0000
0000
0000
0000
0000
0000
0000
0000
0000
ENDCHAR
STARTCHAR U+0134
ENCODING 308
SWIDTH 1000 0
DWIDTH 16 0
BBX 16 16 0 -2
BITMAP 
1FF0
0000
07C0
0820
0820
07C0
0000
0000
0000
0000
0000
0000
0000
0000
0000
0000
ENDCHAR
STARTCHAR U+0135
ENCODING 309
SWIDTH 1000 0
DWIDTH 16 0
BBX 16 16 0 -2
BITMAP 
0000
7F80
0000
1E00
2100
2100
1E00
0000
0000
0000
0000
0000
0000
0000
0000
0000
ENDCHAR
STARTCHAR U+0136
ENCODING 310
SWIDTH 1000 0
DWIDTH 16 0
BBX 16 16 0 -2
BITMAP 
0000
1E00
2100
2100
1E00
0000
0000
0000
0000
0000
0000
0000
0000
0000
0000
0000
ENDCHAR
STARTCHAR U+0137
ENCODING 311
SWIDTH 1000 0
DWIDTH 16 0
BBX 16 16 0 -2
BITMAP 
0000
0000
0010
0010
0010
0010
0010
001E
0010
0010
0010
0010
0010
0010
0010
0000
ENDCHAR
STARTCHAR U+0138
ENCODING 312
SWIDTH 1000 0
DWIDTH 16 0
BBX 16 16 0 -2
BITMAP 
0000
0008
0008
0008
0008
000E
0008
0008
0008
0000
0000
0000
0000
0000
0000
0000
ENDCHAR
STARTCHAR U+0139
ENCODING 313
SWIDTH 1000 0
DWIDTH 16 0
BBX 16 16 0 -2
BITMAP 
0000
0008
0008
0008
0008
000E
0008
0008
0008
0008
0000
0000
0000
0000
0000
0000
ENDCHAR
STARTCHAR U+013A
ENCODING 314
SWIDTH 1000 0
DWIDTH 16 0
BBX 16 16 0 -2
BITMAP 
0000
0000
0012
0012
0012
0012
0012
001E
0012
0012
0012
0012
0012
0012
0012
0000
ENDCHAR
STARTCHAR U+013B
ENCODING 315
SWIDTH 1000 0
DWIDTH 16 0
BBX 16 16 0 -2
BITMAP 
0000
0028
0028
0028
0028
0038
0028
0028
0028
0000
0000
0000
0000
0000
0000
0000
ENDCHAR
STARTCHAR U+013C
ENCODING 316
SWIDTH 1000 0
DWIDTH 16 0
BBX 16 16 0 -2
BITMAP 
0000
0028
0028
0028
0028
0038
0028
0028
0028
0028
0000
0000
0000
0000
0000
0000
ENDCHAR
STARTCHAR U+013D
ENCODING 317
SWIDTH 1000 0
DWIDTH 16 0
BBX 16 16 0 -2
BITMAP 
0000
0000
0010
0010
0010
0010
001E
0010
0010
001E
0010
0010
0010
0010
0010
0000
ENDCHAR
STARTCHAR U+013E
ENCODING 318
SWIDTH 1000 0
DWIDTH 16 0
BBX 16 16 0 -2
BITMAP 
0000
0008
0008
0008
000E
0008
000E
0008
0008
0000
0000
0000
0000
0000
0000
0000
ENDCHAR
STARTCHAR U+013F
ENCODING 319
SWIDTH 1000 0
DWIDTH 16 0
BBX 16 16 0 -2
BITMAP 
0000
0008
0008
0008
000E
0008
000E
0008
0008
0000
0000
0000
0000
0000
0000
0000
ENDCHAR
STARTCHAR U+0140
ENCODING 320
SWIDTH 1000 0
DWIDTH 16 0
BBX 16 16 0 -2
BITMAP 
0000
0000
0012
0012
0012
0012
001E
0012
0012
001E
0012
0012
0012
0012
0012
0000
ENDCHAR
STARTCHAR U+0141
ENCODING 321
SWIDTH 1000 0
DWIDTH 16 0
BBX 16 16 0 -2
BITMAP 
0000
0028
0028
0028
0038
0028
0038
0028
0028
0000
0000
0000
0000
0000
0000
0000
ENDCHAR
STARTCHAR U+0142
ENCODING 322
SWIDTH 1000 0
DWIDTH 16 0
BBX 16 16 0 -2
BITMAP 
0000
0028
0028
0028
0038
0028
0038
0028
0028
0028
0000
0000
0000
0000
0000
0000
ENDCHAR
STARTCHAR U+0143
ENCODING 323
SWIDTH 1000 0
DWIDTH 16 0
BBX 16 16 0 -2
BITMAP 
0000
0000
0002
0002
0002
0002
0002
001E
0002
0002
0002
0002
0002
0002
0002
0000
ENDCHAR
STARTCHAR U+0144
ENCODING 324
SWIDTH 1000 0
DWIDTH 16 0
BBX 16 16 0 -2
BITMAP 
0000
0008
0008
0008
0008
0038
0008
0008
0008
0000
0000
0000
0000
0000
0000
0000
ENDCHAR
STARTCHAR U+0145
ENCODING 325
SWIDTH 1000 0
DWIDTH 16 0
BBX 16 16 0 -2
BITMAP 
0000
0008
0008
0008
0008
0038
0008
0008
0008
0000
0000
0000
0000
0000
0000
0000
ENDCHAR
STARTCHAR U+0146
ENCODING 326
SWIDTH 1000 0
DWIDTH 16 0
BBX 16 16 0 -2
BITMAP 
0000
0000
000A
000A
000A
000A
000A
003A
000A
000A
000A
000A
000A
000A
000A
0000
ENDCHAR
STARTCHAR U+0147
ENCODING 327
SWIDTH 1000 0
DWIDTH 16 0
BBX 16 16 0 -2
BITMAP 
0000
0028
0028
0028
0028
00E8
0028
0028
0028
0000
0000
0000
0000
0000
0000
0000
ENDCHAR
STARTCHAR U+0148
ENCODING 328
SWIDTH 1000 0
DWIDTH 16 0
BBX 16 16 0 -2
BITMAP 
0000
0028
0028
0028
0028
00E8
0028
0028
0028
0000
0000
0000
0000
0000
0000
0000
ENDCHAR
STARTCHAR U+0149
ENCODING 329
SWIDTH 1000 0
DWIDTH 16 0
BBX 16 16 0 -2
BITMAP 
0000
0000
0002
0002
0002
0002
001E
0002
0002
001E
0002
0002
0002
0002
0002
0000
ENDCHAR
STARTCHAR U+014A
ENCODING 330
SWIDTH 1000 0
DWIDTH 16 0
BBX 16 16 0 -2
BITMAP 
0000
0008
0008
0008
0038
0008
0038
0008
0008
0000
0000
0000
0000
0000
0000
0000
ENDCHAR
STARTCHAR U+014B
ENCODING 331
SWIDTH 1000 0
DWIDTH 16 0
BBX 16 16 0 -2
BITMAP 
0000
0008
0008
0008
0038
0008
0038
0008
0008
0008
0000
0000
0000
0000
0000
0000
ENDCHAR
STARTCHAR U+014C
ENCODING 332
SWIDTH 1000 0
DWIDTH 16 0
BBX 16 16 0 -2
BITMAP 
0000
0000
000A
000A
000A
000A
003A
000A
000A
003A
000A
000A
000A
000A
000A
0000
ENDCHAR
STARTCHAR U+014D
ENCODING 333
SWIDTH 1000 0
DWIDTH 16 0
BBX 16 16 0 -2
BITMAP 
0000
0028
0028
0028
00E8
0028
00E8
0028
0028
0000
0000
0000
0000
0000
0000
0000
ENDCHAR
STARTCHAR U+014E
ENCODING 334
SWIDTH 1000 0
DWIDTH 16 0
BBX 16 16 0 -2
BITMAP 
0000
0028
0028
0028
00E8
0028
00E8
0028
0028
0028
0000
0000
0000
0000
0000
0000
ENDCHAR
STARTCHAR U+014F
ENCODING 335
SWIDTH 1000 0
DWIDTH 16 0
BBX 16 16 0 -2
BITMAP 
0000
0000
0000
0000
0000
0000
0000
0000
0000
0200
0200
0200
0200
7FFC
0000
0000
ENDCHAR
STARTCHAR U+0150
ENCODING 336
SWIDTH 1000 0
DWIDTH 16 0
BBX 16 16 0 -2
BITMAP 
0000
0000
0000
0000
0000
0000
0000
0000
0000
0000
0100
0100
0100
7FFC
0000
0000
ENDCHAR
STARTCHAR U+0151
ENCODING 337
SWIDTH 1000 0
DWIDTH 16 0
BBX 16 16 0 -2
BITMAP 
0000
0000
0000
0000
0000
0000
0100
0100
7FFC
0000
0000
0000
0000
0000
0000
0000
ENDCHAR
STARTCHAR U+0152
ENCODING 338
SWIDTH 1000 0
DWIDTH 16 0
BBX 16 16 0 -2
BITMAP 
0000
0000
0000
0000
0000
0000
0100
0100
7FFC
0000
0000
0000
0000
0000
0000
0000
ENDCHAR
STARTCHAR U+0153
ENCODING 339
SWIDTH 1000 0
DWIDTH 16 0
BBX 16 16 0 -2
BITMAP 
0000
0000
0010
0010
0010
0010
0010
001E
0410
0410
0410
7FD0
0010
0010
0010
0000
ENDCHAR
STARTCHAR U+0154
ENCODING 340
SWIDTH 1000 0
DWIDTH 16 0
BBX 16 16 0 -2
BITMAP 
0000
0010
0010
0010
0010
0010
0010
001E
0010
0010
0410
0410
7FD0
0010
0010
0000
ENDCHAR
STARTCHAR U+0155
ENCODING 341
SWIDTH 1000 0
DWIDTH 16 0
BBX 16 16 0 -2
BITMAP 
0000
0008
0008
0008
000E
0008
0408
0408
7FE8
0000
0000
0000
0000
0000
0000
0000
ENDCHAR
STARTCHAR U+0156
ENCODING 342
SWIDTH 1000 0
DWIDTH 16 0
BBX 16 16 0 -2
BITMAP 
0000
0008
0008
0008
000E
0008
0408
0408
7FE8
0000
0000
0000
0000
0000
0000
0000
ENDCHAR
STARTCHAR U+0157
ENCODING 343
SWIDTH 1000 0
DWIDTH 16 0
BBX 16 16 0 -2
BITMAP 
0000
0000
0012
0012
0012
0012
0012
001E
0412
0412
0412
7FD2
0012
0012
0012
0000
ENDCHAR
STARTCHAR U+0158
ENCODING 344
SWIDTH 1000 0
DWIDTH 16 0
BBX 16 16 0 -2
BITMAP 
0000
0012
0012
0012
0012
0012
0012
001E
0012
0012
0412
0412
7FD2
0012
0012
0000
ENDCHAR
STARTCHAR U+0159
ENCODING 345
SWIDTH 1000 0
DWIDTH 16 0
BBX 16 16 0 -2
BITMAP 
0000
0028
0028
0028
0038
0028
0428
0428
7FA8
0000
0000
0000
0000
0000
0000
0000
ENDCHAR
STARTCHAR U+015A
ENCODING 346
SWIDTH 1000 0
DWIDTH 16 0
BBX 16 16 0 -2
BITMAP 
0000
0028
0028
0028
0038
0028
0428
0428
7FA8
0000
0000
0000
0000
0000
0000
0000
ENDCHAR
STARTCHAR U+015B
ENCODING 347
SWIDTH 1000 0
DWIDTH 16 0
BBX 16 16 0 -2
BITMAP 
0000
0000
0004
0004
0004
0004
0004
0004
0404
0404
0404
7FF4
0004
0004
0004
0000
ENDCHAR
STARTCHAR U+015C
ENCODING 348
SWIDTH 1000 0
DWIDTH 16 0
BBX 16 16 0 -2
BITMAP 
0000
0008
0008
0008
0008
0008
0008
0008
0008
0008
0408
0408
7FE8
0008
0008
0000
ENDCHAR
STARTCHAR U+015D
ENCODING 349
SWIDTH 1000 0
DWIDTH 16 0
BBX 16 16 0 -2
BITMAP 
0000
0008
0008
0008
0008
0008
0408
0408
7FE8
0000
0000
0000
0000
0000
0000
0000
ENDCHAR
STARTCHAR U+015E
ENCODING 350
SWIDTH 1000 0
DWIDTH 16 0
BBX 16 16 0 -2
BITMAP 
0000
0008
0008
0008
0008
0008
0408
0408
7FE8
0000
0000
0000
0000
0000
0000
0000
ENDCHAR
STARTCHAR U+015F
ENCODING 351
SWIDTH 1000 0
DWIDTH 16 0
BBX 16 16 0 -2
BITMAP 
0000
0000
0000
0000
0000
0000
0000
0000
0000
0880
0880
0880
0880
7FFC
0000
0000
ENDCHAR
STARTCHAR U+0160
ENCODING 352
SWIDTH 1000 0
DWIDTH 16 0
BBX 16 16 0 -2
BITMAP 
0000
0000
0000
0000
0000
0000
0000
0000
0000
0440
0440
0440
0440
7FFC
0000
0000
ENDCHAR
STARTCHAR U+0161
ENCODING 353
SWIDTH 1000 0
DWIDTH 16 0
BBX 16 16 0 -2
BITMAP 
0000
0000
0000
0000
0000
0000
0480
0480
7FFC
0000
0000
0000
0000
0000
0000
0000
ENDCHAR
STARTCHAR U+0162
ENCODING 354
SWIDTH 1000 0
DWIDTH 16 0
BBX 16 16 0 -2
BITMAP 
0000
0000
0000
0000
0000
0000
0440
0440
7FFC
0000
0000
0000
0000
0000
0000
0000
ENDCHAR
STARTCHAR U+0163
ENCODING 355
SWIDTH 1000 0
DWIDTH 16 0
BBX 16 16 0 -2
BITMAP 
0000
0000
0000
0000
0000
0000
0000
0000
0000
0000
3FF8
0100
0100
0100
0100
0000
ENDCHAR
STARTCHAR U+0164
ENCODING 356
SWIDTH 1000 0
DWIDTH 16 0
BBX 16 16 0 -2
BITMAP 
0000
0000
0000
0000
0000
0000
0000
7FFC
0100
0100
0000
0000
0000
0000
0000
0000
ENDCHAR
STARTCHAR U+0165
ENCODING 357
SWIDTH 1000 0
DWIDTH 16 0
BBX 16 16 0 -2
BITMAP 
0000
0000
0000
0000
0000
0000
0000
0000
7FFC
0100
0100
0100
0000
0000
0000
0000
ENDCHAR
STARTCHAR U+0166
ENCODING 358
SWIDTH 1000 0
DWIDTH 16 0
BBX 16 16 0 -2
BITMAP 
0000
0008
0008
0008
0008
0008
0008
0008
0008
0008
7FE8
0408
04F8
0408
0408
0000
ENDCHAR
STARTCHAR U+0167
ENCODING 359
SWIDTH 1000 0
DWIDTH 16 0
BBX 16 16 0 -2
BITMAP 
0008
0008
0008
0008
0008
0008
7FE8
0278
0208
0000
0000
0000
0000
0000
0000
0000
ENDCHAR
STARTCHAR U+0168
ENCODING 360
SWIDTH 1000 0
DWIDTH 16 0
BBX 16 16 0 -2
BITMAP 
0008
0008
0008
0008
0008
0008
0008
7FE8
0278
0208
0208
0000
0000
0000
0000
0000
ENDCHAR
STARTCHAR U+0169
ENCODING 361
SWIDTH 1000 0
DWIDTH 16 0
BBX 16 16 0 -2
BITMAP 
0000
000A
000A
000A
000A
000A
000A
000A
000A
000A
7FEA
040A
047A
040A
040A
0000
ENDCHAR
STARTCHAR U+016A
ENCODING 362
SWIDTH 1000 0
DWIDTH 16 0
BBX 16 16 0 -2
BITMAP 
0028
0028
0028
0028
0028
0028
7FA8
05E8
0428
0000
0000
0000
0000
0000
0000
0000
ENDCHAR
STARTCHAR U+016B
ENCODING 363
SWIDTH 1000 0
DWIDTH 16 0
BBX 16 16 0 -2
BITMAP 
0028
0028
0028
0028
0028
0028
0028
7FA8
0428
05E8
0428
0428
0000
0000
0000
0000
ENDCHAR
STARTCHAR U+016C
ENCODING 364
SWIDTH 1000 0
DWIDTH 16 0
BBX 16 16 0 -2
BITMAP 
0000
0008
0008
0008
0008
0008
0008
0008
0008
0008
7FE8
0408
0408
0408
0408
0000
ENDCHAR
STARTCHAR U+016D
ENCODING 365
SWIDTH 1000 0
DWIDTH 16 0
BBX 16 16 0 -2
BITMAP 
0008
0008
0008
0008
0008
0008
7FE8
0208
0200
0000
0000
0000
0000
0000
0000
0000
ENDCHAR
STARTCHAR U+016E
ENCODING 366
SWIDTH 1000 0
DWIDTH 16 0
BBX 16 16 0 -2
BITMAP 
0008
0008
0008
0008
0008
0008
0008
7FE8
0208
0208
0208
0008
0000
0000
0000
0000
ENDCHAR
STARTCHAR U+016F
ENCODING 367
SWIDTH 1000 0
DWIDTH 16 0
BBX 16 16 0 -2
BITMAP 
0000
0000
0000
0000
0000
0000
0000
0000
0000
0000
7FFC
0440
0440
0440
0440
0000
ENDCHAR
STARTCHAR U+0170
ENCODING 368
SWIDTH 1000 0
DWIDTH 16 0
BBX 16 16 0 -2
BITMAP 
0000
0000
0000
0000
0000
0000
0000
7FFC
0440
0440
0000
0000
0000
0000
0000
0000
ENDCHAR
STARTCHAR U+0171
ENCODING 369
SWIDTH 1000 0
DWIDTH 16 0
BBX 16 16 0 -2
BITMAP 
0000
0000
0000
0000
0000
0000
0000
0000
7FFC
0440
0440
0440
0000
0000
0000
0000
ENDCHAR
STARTCHAR U+0172
ENCODING 370
SWIDTH 1000 0
DWIDTH 16 0
BBX 16 16 0 -2
BITMAP 
0000
0000
0000
0000
0000
0000
0000
0000
0000
0000
0000
7FFC
0000
0000
0000
0000
ENDCHAR
STARTCHAR U+0173
ENCODING 371
SWIDTH 1000 0
DWIDTH 16 0
BBX 16 16 0 -2
BITMAP 
0000
0000
0000
0000
0000
0000
0000
0000
0000
0000
0000
7FFC
0000
0000
0000
0000
ENDCHAR
STARTCHAR U+0174
ENCODING 372
SWIDTH 1000 0
DWIDTH 16 0
BBX 16 16 0 -2
BITMAP 
0000
0000
0000
0000
0000
0000
0000
0000
7FFC
0000
0000
0000
0000
0000
0000
0000
ENDCHAR
STARTCHAR U+0175
ENCODING 373
SWIDTH 1000 0
DWIDTH 16 0
BBX 16 16 0 -2
BITMAP 
0000
0000
0000
0000
0000
0000
0000
0000
7FFC
0000
0000
0000
0000
0000
0000
0000
ENDCHAR
STARTCHAR U+0176
ENCODING 374
SWIDTH 1000 0
DWIDTH 16 0
BBX 16 16 0 -2
BITMAP 
0000
0000
0008
0008
0008
0008
0008
0008
0008
0008
0008
7FE8
0008
0008
0008
0000
ENDCHAR
STARTCHAR U+0177
ENCODING 375
SWIDTH 1000 0
DWIDTH 16 0
BBX 16 16 0 -2
BITMAP 
0000
0008
0008
0008
0008
0008
0008
0008
0008
0008
0008
7FE8
0008
0008
0008
0000
ENDCHAR
STARTCHAR U+0178
ENCODING 376
SWIDTH 1000 0
DWIDTH 16 0
BBX 16 16 0 -2
BITMAP 
0000
0008
0008
0008
0008
0008
0008
0008
7FE8
0000
0000
0000
0000
0000
0000
0000
ENDCHAR
STARTCHAR U+0179
ENCODING 377
SWIDTH 1000 0
DWIDTH 16 0
BBX 16 16 0 -2
BITMAP 
0000
0008
0008
0008
0008
0008
0008
0008
7FE8
0000
0000
0000
0000
0000
0000
0000
ENDCHAR
STARTCHAR U+017A
ENCODING 378
SWIDTH 1000 0
DWIDTH 16 0
BBX 16 16 0 -2
BITMAP 
0000
0000
0008
0008
0008
0008
0008
0008
0008
0008
0008
0008
0008
0008
0008
0000
ENDCHAR
STARTCHAR U+017B
ENCODING 379
SWIDTH 1000 0
DWIDTH 16 0
BBX 16 16 0 -2
BITMAP 
0000
0008
0008
0008
0008
0008
0008
0008
0008
0000
0000
0000
0000
0000
0000
0000
ENDCHAR
STARTCHAR U+017C
ENCODING 380
SWIDTH 1000 0
DWIDTH 16 0
BBX 16 16 0 -2
BITMAP 
0000
0008
0008
0008
0008
0008
0008
0008
0008
0008
0000
0000
0000
0000
0000
0000
ENDCHAR
STARTCHAR U+017D
ENCODING 381
SWIDTH 1000 0
DWIDTH 16 0
BBX 16 16 0 -2
BITMAP 
0000
0008
0008
0008
0008
0008
000E
0008
0008
000E
0908
0908
0908
7FE8
0008
0000
ENDCHAR
STARTCHAR U+017E
ENCODING 382
SWIDTH 1000 0
DWIDTH 16 0
BBX 16 16 0 -2
BITMAP 
0000
0008
0008
000E
0008
000E
0908
0908
7FE8
0000
0000
0000
0000
0000
0000
0000
ENDCHAR
STARTCHAR U+017F
ENCODING 383
SWIDTH 1000 0
DWIDTH 16 0
BBX 16 16 0 -2
BITMAP 
0000
0008
0008
0008
000E
0008
000E
0908
0908
0908
7FE8
0008
0000
0000
0000
0000
ENDCHAR
STARTCHAR U+0180
ENCODING 384
SWIDTH 1000 0
DWIDTH 16 0
BBX 16 16 0 -2
BITMAP 
0000
0012
0012
0012
0012
0012
001E
0012
0012
001E
1212
1212
1212
7FD2
0012
0000
ENDCHAR
STARTCHAR U+0181
ENCODING 385
SWIDTH 1000 0
DWIDTH 16 0
BBX 16 16 0 -2
BITMAP 
0000
0014
0014
001C
0014
001C
1214
1214
7FD4
0000
0000
0000
0000
0000
0000
0000
ENDCHAR
STARTCHAR U+0182
ENCODING 386
SWIDTH 1000 0
DWIDTH 16 0
BBX 16 16 0 -2
BITMAP 
0000
0014
0014
0014
001C
0014
001C
0014
1214
1214
7FD4
0014
0000
0000
0000
0000
ENDCHAR
STARTCHAR U+0183
ENCODING 387
SWIDTH 1000 0
DWIDTH 16 0
BBX 16 16 0 -2
BITMAP 
0000
0004
0004
0004
0004
0004
0004
0004
0004
0904
0904
0904
7FF4
0004
0004
0000
ENDCHAR
STARTCHAR U+0184
ENCODING 388
SWIDTH 1000 0
DWIDTH 16 0
BBX 16 16 0 -2
BITMAP 
0000
0004
0004
0004
0004
0004
0904
0904
7FF4
0000
0000
0000
0000
0000
0000
0000
ENDCHAR
STARTCHAR U+0185
ENCODING 389
SWIDTH 1000 0
DWIDTH 16 0
BBX 16 16 0 -2
BITMAP 
0000
0004
0004
0004
0004
0004
0004
0904
0904
7FF4
0004
0000
0000
0000
0000
0000
ENDCHAR
STARTCHAR U+0186
ENCODING 390
SWIDTH 1000 0
DWIDTH 16 0
BBX 16 16 0 -2
BITMAP 
0000
0004
0004
0004
0004
0004
0004
0004
0004
7F84
123C
1204
123C
1204
0004
0000
ENDCHAR
STARTCHAR U+0187
ENCODING 391
SWIDTH 1000 0
DWIDTH 16 0
BBX 16 16 0 -2
BITMAP 
0000
0004
0004
0004
0004
0004
7FDC
0A04
0A1C
0004
0000
0000
0000
0000
0000
0000
ENDCHAR
STARTCHAR U+0188
ENCODING 392
SWIDTH 1000 0
DWIDTH 16 0
BBX 16 16 0 -2
BITMAP 
0000
0004
0004
0004
0004
0004
0004
0004
7FC4
121C
1204
121C
0004
0000
0000
0000
ENDCHAR
STARTCHAR U+0189
ENCODING 393
SWIDTH 1000 0
DWIDTH 16 0
BBX 16 16 0 -2
BITMAP 
0000
0000
000A
000A
000A
000A
000A
000A
000A
7F8A
123A
120A
123A
120A
000A
0000
ENDCHAR
STARTCHAR U+018A
ENCODING 394
SWIDTH 1000 0
DWIDTH 16 0
BBX 16 16 0 -2
BITMAP 
0000
000A
000A
000A
000A
000A
3FBA
0A0A
0A3A
000A
0000
0000
0000
0000
0000
0000
ENDCHAR
STARTCHAR U+018B
ENCODING 395
SWIDTH 1000 0
DWIDTH 16 0
BBX 16 16 0 -2
BITMAP 
0000
000A
000A
000A
000A
000A
000A
000A
7F8A
123A
120A
123A
000A
0000
0000
0000
ENDCHAR
STARTCHAR U+018C
ENCODING 396
SWIDTH 1000 0
DWIDTH 16 0
BBX 16 16 0 -2
BITMAP 
0000
0004
0004
0004
0004
0004
0004
0004
0004
0004
7FF4
0884
0884
0884
0884
0000
ENDCHAR
STARTCHAR U+018D
ENCODING 397
SWIDTH 1000 0
DWIDTH 16 0
BBX 16 16 0 -2
BITMAP 
0000
0004
0004
0004
0004
0004
7FF4
0884
0884
0000
0000
0000
0000
0000
0000
0000
ENDCHAR
STARTCHAR U+018E
ENCODING 398
SWIDTH 1000 0
DWIDTH 16 0
BBX 16 16 0 -2
BITMAP 
0000
0004
0004
0004
0004
0004
0004
0004
7FF4
0484
0484
0000
0000
0000
0000
0000
ENDCHAR
STARTCHAR U+018F
ENCODING 399
SWIDTH 1000 0
DWIDTH 16 0
BBX 16 16 0 -2
BITMAP 
0000
0000
0000
0000
0000
0000
0000
0000
0000
0000
00C0
00C0
0000
0000
0000
0000
ENDCHAR
STARTCHAR U+0190
ENCODING 400
SWIDTH 1000 0
DWIDTH 16 0
BBX 16 16 0 -2
BITMAP 
0000
0000
0000
0000
0000
0000
0000
0180
0180
0000
0000
0000
0000
0000
0000
0000
ENDCHAR
STARTCHAR U+0191
ENCODING 401
SWIDTH 1000 0
DWIDTH 16 0
BBX 16 16 0 -2
BITMAP 
0000
0000
0000
0000
0000
0000
0000
0000
0000
00C0
00C0
0000
0000
0000
0000
0000
ENDCHAR
STARTCHAR U+0192
ENCODING 402
SWIDTH 1000 0
DWIDTH 16 0
BBX 16 16 0 -2
BITMAP 
0000
0004
0004
0004
0004
0004
0004
0004
0004
0004
0304
0304
0004
0004
0004
0000
ENDCHAR
STARTCHAR U+0193
ENCODING 403
SWIDTH 1000 0
DWIDTH 16 0
BBX 16 16 0 -2
BITMAP 
0000
0008
0008
0008
0008
0008
0008
0188
0188
0000
0000
0000
0000
0000
0000
0000
ENDCHAR
STARTCHAR U+0194
ENCODING 404
SWIDTH 1000 0
DWIDTH 16 0
BBX 16 16 0 -2
BITMAP 
0000
0008
0008
0008
0008
0008
0008
0008
0308
0308
0008
0000
0000
0000
0000
0000
ENDCHAR
STARTCHAR U+0195
ENCODING 405
SWIDTH 1000 0
DWIDTH 16 0
BBX 16 16 0 -2
BITMAP 
0000
0000
0000
0000
0000
0000
0000
0000
0000
0000
07F8
0008
0008
0008
0008
0000
ENDCHAR
STARTCHAR U+0196
ENCODING 406
SWIDTH 1000 0
DWIDTH 16 0
BBX 16 16 0 -2
BITMAP 
0000
0000
0000
0000
0000
0000
0000
0000
0000
0000
0000
07F8
0008
0008
0008
0000
ENDCHAR
STARTCHAR U+0197
ENCODING 407
SWIDTH 1000 0
DWIDTH 16 0
BBX 16 16 0 -2
BITMAP 
0000
0000
0000
0000
0000
0000
0000
0000
0000
0000
07F8
0008
0008
0008
0008
0000
ENDCHAR
STARTCHAR U+0198
ENCODING 408
SWIDTH 1000 0
DWIDTH 16 0
BBX 16 16 0 -2
BITMAP 
0000
0000
0000
0000
0000
0000
0000
0000
0000
0000
1FF0
0010
0010
0010
0010
0000
ENDCHAR
STARTCHAR U+0199
ENCODING 409
SWIDTH 1000 0
DWIDTH 16 0
BBX 16 16 0 -2
BITMAP 
0000
0000
0000
0000
0000
0000
0000
0000
0000
0000
0000
3EF8
0208
0208
0208
0000
ENDCHAR
STARTCHAR U+019A
ENCODING 410
SWIDTH 1000 0
DWIDTH 16 0
BBX 16 16 0 -2
BITMAP 
0000
0000
0000
0000
0000
0000
0000
0000
0000
0000
0000
3EF8
0208
0208
0208
0000
ENDCHAR
STARTCHAR U+019B
ENCODING 411
SWIDTH 1000 0
DWIDTH 16 0
BBX 16 16 0 -2
BITMAP 
0000
0000
0000
0000
0000
0000
0000
0000
0000
0000
0000
3EF8
0208
0208
0208
0000
ENDCHAR
STARTCHAR U+019C
ENCODING 412
SWIDTH 1000 0
DWIDTH 16 0
BBX 16 16 0 -2
BITMAP 
0000
0000
0000
0000
0000
0000
0000
0000
0000
0000
0000
3EF8
0208
0208
0208
0000
ENDCHAR
STARTCHAR U+019D
ENCODING 413
SWIDTH 1000 0
DWIDTH 16 0
BBX 16 16 0 -2
BITMAP 
0000
0000
0000
0000
0000
0000
0000
0000
0000
0000
0000
1F08
0108
0114
0162
0000
ENDCHAR
STARTCHAR U+019E
ENCODING 414
SWIDTH 1000 0
DWIDTH 16 0
BBX 16 16 0 -2
BITMAP 
0000
0000
0000
0000
0000
0000
0000
0000
0000
0000
0000
1F08
0108
0114
0162
0000
ENDCHAR
STARTCHAR U+019F
ENCODING 415
SWIDTH 1000 0
DWIDTH 16 0
BBX 16 16 0 -2
BITMAP 
0000
0000
0000
0000
0000
0000
0000
0000
0000
0000
0000
3E10
0210
0228
02C4
0000
ENDCHAR
STARTCHAR U+01A0
ENCODING 416
SWIDTH 1000 0
DWIDTH 16 0
BBX 16 16 0 -2
BITMAP 
0000
0000
0000
0000
0000
0000
0000
0000
0000
0000
0000
1E10
0210
0228
02C4
0000
ENDCHAR
STARTCHAR U+01A1
ENCODING 417
SWIDTH 1000 0
DWIDTH 16 0
BBX 16 16 0 -2
BITMAP 
0000
0000
0000
0000
0000
0000
0000
0000
0000
0000
0800
0800
0800
0800
0FF8
0000
ENDCHAR
STARTCHAR U+01A2
ENCODING 418
SWIDTH 1000 0
DWIDTH 16 0
BBX 16 16 0 -2
BITMAP 
0000
0000
0000
0000
0000
0000
0000
0000
0000
0000
0000
1000
1000
1000
1FF8
0000
ENDCHAR
STARTCHAR U+01A3
ENCODING 419
SWIDTH 1000 0
DWIDTH 16 0
BBX 16 16 0 -2
BITMAP 
0000
0000
0000
0000
0000
0000
0000
0000
0000
0000
0800
0800
0800
0800
0FF8
0000
ENDCHAR
STARTCHAR U+01A4
ENCODING 420
SWIDTH 1000 0
DWIDTH 16 0
BBX 16 16 0 -2
BITMAP 
0000
0000
0000
0000
0000
0000
0000
0000
0000
0000
0000
1000
1000
1000
1FF0
0000
ENDCHAR
STARTCHAR U+01A5
ENCODING 421
SWIDTH 1000 0
DWIDTH 16 0
BBX 16 16 0 -2
BITMAP 
0000
0000
0000
0000
0000
0000
0000
0000
0000
0000
0000
10F8
1010
1030
1ECC
0000
ENDCHAR
STARTCHAR U+01A6
ENCODING 422
SWIDTH 1000 0
DWIDTH 16 0
BBX 16 16 0 -2
BITMAP 
0000
0000
0000
0000
0000
0000
0000
0000
0000
0000
0000
20F8
2010
2030
3ECC
0000
ENDCHAR
STARTCHAR U+01A7
ENCODING 423
SWIDTH 1000 0
DWIDTH 16 0
BBX 16 16 0 -2
BITMAP 
0000
0000
0000
0000
0000
0000
0000
0000
0000
0000
0000
20F8
2010
2030
3ECC
0000
ENDCHAR
STARTCHAR U+01A8
ENCODING 424
SWIDTH 1000 0
DWIDTH 16 0
BBX 16 16 0 -2
BITMAP 
0000
0000
0000
0000
0000
0000
0000
0000
0000
0000
0000
20F8
2010
2030
3ECC
0000
ENDCHAR
STARTCHAR U+01A9
ENCODING 425
SWIDTH 1000 0
DWIDTH 16 0
BBX 16 16 0 -2
BITMAP 
0000
0000
0000
0000
0000
0000
0000
0000
0000
0000
0808
087F
081C
0822
0F9C
0000
ENDCHAR
STARTCHAR U+01AA
ENCODING 426
SWIDTH 1000 0
DWIDTH 16 0
BBX 16 16 0 -2
BITMAP 
0000
0000
0000
0000
0000
0000
0000
0000
0000
0000
2020
21FC
2070
2088
3E70
0000
ENDCHAR
STARTCHAR U+01AB
ENCODING 427
SWIDTH 1000 0
DWIDTH 16 0
BBX 16 16 0 -2
BITMAP 
0000
0000
0000
0000
0000
0000
0000
0000
0000
0000
2020
21FC
2070
2088
3E70
0000
ENDCHAR
STARTCHAR U+01AC
ENCODING 428
SWIDTH 1000 0
DWIDTH 16 0
BBX 16 16 0 -2
BITMAP 
0000
0000
0000
0000
0000
0000
0000
0000
0000
0000
2020
21FC
2070
2088
3E70
0000
ENDCHAR
STARTCHAR U+01AD
ENCODING 429
SWIDTH 1000 0
DWIDTH 16 0
BBX 16 16 0 -2
BITMAP 
0000
0000
0000
0000
0000
0000
0000
0000
0000
0000
03F8
0200
0200
0200
03F8
0000
ENDCHAR
STARTCHAR U+01AE
ENCODING 430
SWIDTH 1000 0
DWIDTH 16 0
BBX 16 16 0 -2
BITMAP 
0000
0000
0000
0000
0000
0000
0000
0000
0000
0000
03F8
0200
0200
0200
03F8
0000
ENDCHAR
STARTCHAR U+01AF
ENCODING 431
SWIDTH 1000 0
DWIDTH 16 0
BBX 16 16 0 -2
BITMAP 
0000
0000
0000
0000
0000
0000
0000
0000
0000
0000
03F8
0200
0200
0200
03F8
0000
ENDCHAR
STARTCHAR U+01B0
ENCODING 432
SWIDTH 1000 0
DWIDTH 16 0
BBX 16 16 0 -2
BITMAP 
0000
0000
0000
0000
0000
0000
0000
0000
0000
0000
1FF0
1000
1000
1000
1FF0
0000
ENDCHAR
STARTCHAR U+01B1
ENCODING 433
SWIDTH 1000 0
DWIDTH 16 0
BBX 16 16 0 -2
BITMAP 
0000
0000
0000
0000
0000
0000
0000
0000
0000
0000
07F8
0008
07F8
0400
07F8
0000
ENDCHAR
STARTCHAR U+01B2
ENCODING 434
SWIDTH 1000 0
DWIDTH 16 0
BBX 16 16 0 -2
BITMAP 
0000
0000
0000
0000
0000
0000
0000
0000
0000
0000
07F8
0008
07F8
0400
07F8
0000
ENDCHAR
STARTCHAR U+01B3
ENCODING 435
SWIDTH 1000 0
DWIDTH 16 0
BBX 16 16 0 -2
BITMAP 
0000
0000
0000
0000
0000
0000
0000
0000
0000
0000
07F8
0008
07F8
0400
07F8
0000
ENDCHAR
STARTCHAR U+01B4
ENCODING 436
SWIDTH 1000 0
DWIDTH 16 0
BBX 16 16 0 -2
BITMAP 
0000
0000
0000
0000
0000
0000
0000
0000
0000
0000
1FF0
0010
1FF0
1000
1FF0
0000
ENDCHAR
STARTCHAR U+01B5
ENCODING 437
SWIDTH 1000 0
DWIDTH 16 0
BBX 16 16 0 -2
BITMAP 
0000
0000
0000
0000
0000
0000
0000
0000
0000
0000
3EF8
0208
3E08
2008
3E08
0000
ENDCHAR
STARTCHAR U+01B6
ENCODING 438
SWIDTH 1000 0
DWIDTH 16 0
BBX 16 16 0 -2
BITMAP 
0000
0000
0000
0000
0000
0000
0000
0000
0000
0000
3EF8
0208
3E08
2008
3E08
0000
ENDCHAR
STARTCHAR U+01B7
ENCODING 439
SWIDTH 1000 0
DWIDTH 16 0
BBX 16 16 0 -2
BITMAP 
0000
0000
0000
0000
0000
0000
0000
0000
0000
0000
3EF8
0208
3E08
2008
3E08
0000
ENDCHAR
STARTCHAR U+01B8
ENCODING 440
SWIDTH 1000 0
DWIDTH 16 0
BBX 16 16 0 -2
BITMAP 
0000
0000
0000
0000
0000
0000
0000
0000
0000
0000
3EF8
0208
3E08
2008
3E08
0000
ENDCHAR
STARTCHAR U+01B9
ENCODING 441
SWIDTH 1000 0
DWIDTH 16 0
BBX 16 16 0 -2
BITMAP 
0000
0000
0000
0000
0000
0000
0000
0000
0000
0000
3EF8
0288
3E88
2088
3EF8
0000
ENDCHAR
STARTCHAR U+01BA
ENCODING 442
SWIDTH 1000 0
DWIDTH 16 0
BBX 16 16 0 -2
BITMAP 
0000
0000
0000
0000
0000
0000
0000
0000
0000
0000
3EF8
0288
3E88
2088
3EF8
0000
ENDCHAR
STARTCHAR U+01BB
ENCODING 443
SWIDTH 1000 0
DWIDTH 16 0
BBX 16 16 0 -2
BITMAP 
0000
0000
0000
0000
0000
0000
0000
0000
0000
0000
3EF8
0288
3E88
2088
3EF8
0000
ENDCHAR
STARTCHAR U+01BC
ENCODING 444
SWIDTH 1000 0
DWIDTH 16 0
BBX 16 16 0 -2
BITMAP 
0000
0000
0000
0000
0000
0000
0000
0000
0000
0000
3EF8
0288
3E88
2088
3EF8
0000
ENDCHAR
STARTCHAR U+01BD
ENCODING 445
SWIDTH 1000 0
DWIDTH 16 0
BBX 16 16 0 -2
BITMAP 
0000
0000
0000
0000
0000
0000
0000
0000
0000
0000
3E88
0288
3EF8
2088
3EF8
0000
ENDCHAR
STARTCHAR U+01BE
ENCODING 446
SWIDTH 1000 0
DWIDTH 16 0
BBX 16 16 0 -2
BITMAP 
0000
0000
0000
0000
0000
0000
0000
0000
0000
0000
3E88
0288
3EF8
2088
3EF8
0000
ENDCHAR
STARTCHAR U+01BF
ENCODING 447
SWIDTH 1000 0
DWIDTH 16 0
BBX 16 16 0 -2
BITMAP 
0000
0000
0000
0000
0000
0000
0000
0000
0000
0000
3E88
0288
3EF8
2088
3EF8
0000
ENDCHAR
STARTCHAR U+01C0
ENCODING 448
SWIDTH 1000 0
DWIDTH 16 0
BBX 16 16 0 -2
BITMAP 
0000
0000
0000
0000
0000
0000
0000
0000
0000
0000
3E88
0288
3EF8
2088
3EF8
0000
ENDCHAR
STARTCHAR U+01C1
ENCODING 449
SWIDTH 1000 0
DWIDTH 16 0
BBX 16 16 0 -2
BITMAP 
0000
0000
0000
0000
0000
0000
0000
0000
0000
0000
1F08
0108
1F08
1014
1F62
0000
ENDCHAR
STARTCHAR U+01C2
ENCODING 450
SWIDTH 1000 0
DWIDTH 16 0
BBX 16 16 0 -2
BITMAP 
0000
0000
0000
0000
0000
0000
0000
0000
0000
0000
0F88
0088
0F88
0814
0FA2
0000
ENDCHAR
STARTCHAR U+01C3
ENCODING 451
SWIDTH 1000 0
DWIDTH 16 0
BBX 16 16 0 -2
BITMAP 
0000
0000
0000
0000
0000
0000
0000
0000
0000
0000
1F08
0108
1F08
1014
1F62
0000
ENDCHAR
STARTCHAR U+01C4
ENCODING 452
SWIDTH 1000 0
DWIDTH 16 0
BBX 16 16 0 -2
BITMAP 
0000
0000
0000
0000
0000
0000
0000
0000
0000
0000
3E10
0210
3E10
2028
3EC4
0000
ENDCHAR
STARTCHAR U+01C5
ENCODING 453
SWIDTH 1000 0
DWIDTH 16 0
BBX 16 16 0 -2
BITMAP 
0000
0000
0000
0000
0000
0000
0000
0000
0000
0000
3EF8
0280
3EF8
2080
3EF8
0000
ENDCHAR
STARTCHAR U+01C6
ENCODING 454
SWIDTH 1000 0
DWIDTH 16 0
BBX 16 16 0 -2
BITMAP 
0000
0000
0000
0000
0000
0000
0000
0000
0000
0000
3EF8
0280
3EF8
2080
3EF8
0000
ENDCHAR
STARTCHAR U+01C7
ENCODING 455
SWIDTH 1000 0
DWIDTH 16 0
BBX 16 16 0 -2
BITMAP 
0000
0000
0000
0000
0000
0000
0000
0000
0000
0000
3EF8
0280
3EF8
2080
3EF8
0000
ENDCHAR
STARTCHAR U+01C8
ENCODING 456
SWIDTH 1000 0
DWIDTH 16 0
BBX 16 16 0 -2
BITMAP 
0000
0000
0000
0000
0000
0000
0000
0000
0000
0000
3EF8
0280
3EF8
2080
3EF8
0000
ENDCHAR
STARTCHAR U+01C9
ENCODING 457
SWIDTH 1000 0
DWIDTH 16 0
BBX 16 16 0 -2
BITMAP 
0000
0000
0000
0000
0000
0000
0000
0000
0000
0000
3EFC
0248
3E48
2048
3EFC
0000
ENDCHAR
STARTCHAR U+01CA
ENCODING 458
SWIDTH 1000 0
DWIDTH 16 0
BBX 16 16 0 -2
BITMAP 
0000
0000
0000
0000
0000
0000
0000
0000
0000
0000
3EFC
0248
3E48
2048
3EFC
0000
ENDCHAR
STARTCHAR U+01CB
ENCODING 459
SWIDTH 1000 0
DWIDTH 16 0
BBX 16 16 0 -2
BITMAP 
0000
0000
0000
0000
0000
0000
0000
0000
0000
0000
3EFC
0248
3E48
2048
3EFC
0000
ENDCHAR
STARTCHAR U+01CC
ENCODING 460
SWIDTH 1000 0
DWIDTH 16 0
BBX 16 16 0 -2
BITMAP 
0000
0000
0000
0000
0000
0000
0000
0000
0000
0000
3EFC
0248
3E48
2048
3EFC
0000
ENDCHAR
STARTCHAR U+01CD
ENCODING 461
SWIDTH 1000 0
DWIDTH 16 0
BBX 16 16 0 -2
BITMAP 
0000
0000
0000
0000
0000
0000
0000
0000
0000
0000
1F08
017F
1F1C
1022
1F1C
0000
ENDCHAR
STARTCHAR U+01CE
ENCODING 462
SWIDTH 1000 0
DWIDTH 16 0
BBX 16 16 0 -2
BITMAP 
0000
0000
0000
0000
0000
0000
0000
0000
0000
0000
3E10
02FE
3E38
2044
3E38
0000
ENDCHAR
STARTCHAR U+01CF
ENCODING 463
SWIDTH 1000 0
DWIDTH 16 0
BBX 16 16 0 -2
BITMAP 
0000
0000
0000
0000
0000
0000
0000
0000
0000
0000
3E10
02FE
3E38
2044
3E38
0000
ENDCHAR
STARTCHAR U+01D0
ENCODING 464
SWIDTH 1000 0
DWIDTH 16 0
BBX 16 16 0 -2
BITMAP 
0000
0000
0000
0000
0000
0000
0000
0000
0000
0000
3E20
03FC
3E70
2088
3E70
0000
ENDCHAR
STARTCHAR U+01D1
ENCODING 465
SWIDTH 1000 0
DWIDTH 16 0
BBX 16 16 0 -2
BITMAP 
0000
0000
0000
0000
0000
0000
0000
0000
0000
0000
03F8
0208
0208
0208
03F8
0000
ENDCHAR
STARTCHAR U+01D2
ENCODING 466
SWIDTH 1000 0
DWIDTH 16 0
BBX 16 16 0 -2
BITMAP 
0000
0000
0000
0000
0000
0000
0000
0000
0000
0000
03F8
0208
0208
0208
03F8
0000
ENDCHAR
STARTCHAR U+01D3
ENCODING 467
SWIDTH 1000 0
DWIDTH 16 0
BBX 16 16 0 -2
BITMAP 
0000
0000
0000
0000
0000
0000
0000
0000
0000
0000
03F8
0208
0208
0208
03F8
0000
ENDCHAR
STARTCHAR U+01D4
ENCODING 468
SWIDTH 1000 0
DWIDTH 16 0
BBX 16 16 0 -2
BITMAP 
0000
0000
0000
0000
0000
0000
0000
0000
0000
0000
1FF0
1010
1010
1010
1FF0
0000
ENDCHAR
STARTCHAR U+01D5
ENCODING 469
SWIDTH 1000 0
DWIDTH 16 0
BBX 16 16 0 -2
BITMAP 
0000
0000
0000
0000
0000
0000
0000
0000
0000
0000
0208
0208
03F8
0208
03F8
0000
ENDCHAR
STARTCHAR U+01D6
ENCODING 470
SWIDTH 1000 0
DWIDTH 16 0
BBX 16 16 0 -2
BITMAP 
0000
0000
0000
0000
0000
0000
0000
0000
0000
0000
0208
0208
03F8
0208
03F8
0000
ENDCHAR
STARTCHAR U+01D7
ENCODING 471
SWIDTH 1000 0
DWIDTH 16 0
BBX 16 16 0 -2
BITMAP 
0000
0000
0000
0000
0000
0000
0000
0000
0000
0000
0208
0208
03F8
0208
03F8
0000
ENDCHAR
STARTCHAR U+01D8
ENCODING 472
SWIDTH 1000 0
DWIDTH 16 0
BBX 16 16 0 -2
BITMAP 
0000
0000
0000
0000
0000
0000
0000
0000
0000
0000
1010
1010
1FF0
1010
1FF0
0000
ENDCHAR
STARTCHAR U+01D9
ENCODING 473
SWIDTH 1000 0
DWIDTH 16 0
BBX 16 16 0 -2
BITMAP 
0000
0000
0000
0000
0000
0000
0000
0000
0000
0000
1108
1108
1F08
1114
1F62
0000
ENDCHAR
STARTCHAR U+01DA
ENCODING 474
SWIDTH 1000 0
DWIDTH 16 0
BBX 16 16 0 -2
BITMAP 
0000
0000
0000
0000
0000
0000
0000
0000
0000
0000
2108
2108
3F08
2114
3F62
0000
ENDCHAR
STARTCHAR U+01DB
ENCODING 475
SWIDTH 1000 0
DWIDTH 16 0
BBX 16 16 0 -2
BITMAP 
0000
0000
0000
0000
0000
0000
0000
0000
0000
0000
1108
1108
1F08
1114
1F62
0000
ENDCHAR
STARTCHAR U+01DC
ENCODING 476
SWIDTH 1000 0
DWIDTH 16 0
BBX 16 16 0 -2
BITMAP 
0000
0000
0000
0000
0000
0000
0000
0000
0000
0000
2220
2220
3E20
2250
3E88
0000
ENDCHAR
STARTCHAR U+01DD
ENCODING 477
SWIDTH 1000 0
DWIDTH 16 0
BBX 16 16 0 -2
BITMAP 
0000
0000
0000
0000
0000
0000
0000
0000
0000
0000
0010
0010
0010
0068
0184
0000
ENDCHAR
STARTCHAR U+01DE
ENCODING 478
SWIDTH 1000 0
DWIDTH 16 0
BBX 16 16 0 -2
BITMAP 
0000
0000
0000
0000
0000
0000
0000
0000
0000
0000
0010
0010
0010
0068
0184
0000
ENDCHAR
STARTCHAR U+01DF
ENCODING 479
SWIDTH 1000 0
DWIDTH 16 0
BBX 16 16 0 -2
BITMAP 
0000
0000
0000
0000
0000
0000
0000
0000
0000
0000
0008
0008
0008
0034
00C2
0000
ENDCHAR
STARTCHAR U+01E0
ENCODING 480
SWIDTH 1000 0
DWIDTH 16 0
BBX 16 16 0 -2
BITMAP 
0000
0000
0000
0000
0000
0000
0000
0000
0000
0000
0000
0100
0100
0280
0C40
0000
ENDCHAR
STARTCHAR U+01E1
ENCODING 481
SWIDTH 1000 0
DWIDTH 16 0
BBX 16 16 0 -2
BITMAP 
0000
0000
0000
0000
0000
0000
0000
0000
0000
0000
0048
0048
00A8
0114
0662
0000
ENDCHAR
STARTCHAR U+01E2
ENCODING 482
SWIDTH 1000 0
DWIDTH 16 0
BBX 16 16 0 -2
BITMAP 
0000
0000
0000
0000
0000
0000
0000
0000
0000
0000
0048
0048
00A8
0114
0662
0000
ENDCHAR
STARTCHAR U+01E3
ENCODING 483
SWIDTH 1000 0
DWIDTH 16 0
BBX 16 16 0 -2
BITMAP 
0000
0000
0000
0000
0000
0000
0000
0000
0000
0000
0048
0048
00A8
0114
0662
0000
ENDCHAR
STARTCHAR U+01E4
ENCODING 484
SWIDTH 1000 0
DWIDTH 16 0
BBX 16 16 0 -2
BITMAP 
0000
0000
0000
0000
0000
0000
0000
0000
0000
0000
0000
0240
0240
0DA0
3310
0000
ENDCHAR
STARTCHAR U+01E5
ENCODING 485
SWIDTH 1000 0
DWIDTH 16 0
BBX 16 16 0 -2
BITMAP 
0000
0000
0000
0000
0000
0000
0000
0000
0000
0000
0000
03F0
0408
0408
03F0
0000
ENDCHAR
STARTCHAR U+01E6
ENCODING 486
SWIDTH 1000 0
DWIDTH 16 0
BBX 16 16 0 -2
BITMAP 
0000
0000
0000
0000
0000
0000
0000
0000
0000
0000
0000
03F0
0408
0408
03F0
0000
ENDCHAR
STARTCHAR U+01E7
ENCODING 487
SWIDTH 1000 0
DWIDTH 16 0
BBX 16 16 0 -2
BITMAP 
0000
0000
0000
0000
0000
0000
0000
0000
0000
0000
0000
01F0
0208
0208
01F0
0000
ENDCHAR
STARTCHAR U+01E8
ENCODING 488
SWIDTH 1000 0
DWIDTH 16 0
BBX 16 16 0 -2
BITMAP 
0000
0000
0000
0000
0000
0000
0000
0000
0000
0000
0000
07C0
0820
0820
07C0
0000
ENDCHAR
STARTCHAR U+01E9
ENCODING 489
SWIDTH 1000 0
DWIDTH 16 0
BBX 16 16 0 -2
BITMAP 
0000
0000
0000
0000
0000
0000
0000
0000
0000
0000
03F8
0020
0020
00D0
0308
0000
ENDCHAR
STARTCHAR U+01EA
ENCODING 490
SWIDTH 1000 0
DWIDTH 16 0
BBX 16 16 0 -2
BITMAP 
0000
0000
0000
0000
0000
0000
0000
0000
0000
0000
03F8
0020
0020
00D0
0308
0000
ENDCHAR
STARTCHAR U+01EB
ENCODING 491
SWIDTH 1000 0
DWIDTH 16 0
BBX 16 16 0 -2
BITMAP 
0000
0000
0000
0000
0000
0000
0000
0000
0000
0000
03F8
0020
0020
00D0
0308
0000
ENDCHAR
STARTCHAR U+01EC
ENCODING 492
SWIDTH 1000 0
DWIDTH 16 0
BBX 16 16 0 -2
BITMAP 
0000
0000
0000
0000
0000
0000
0000
0000
0000
0000
0000
07E0
0080
0140
0620
0000
ENDCHAR
STARTCHAR U+01ED
ENCODING 493
SWIDTH 1000 0
DWIDTH 16 0
BBX 16 16 0 -2
BITMAP 
0000
0000
0000
0000
0000
0000
0000
0000
0000
0000
0040
03F8
0040
00A0
0318
0000
ENDCHAR
STARTCHAR U+01EE
ENCODING 494
SWIDTH 1000 0
DWIDTH 16 0
BBX 16 16 0 -2
BITMAP 
0000
0000
0000
0000
0000
0000
0000
0000
0000
0000
0040
03F8
0040
00A0
0318
0000
ENDCHAR
STARTCHAR U+01EF
ENCODING 495
SWIDTH 1000 0
DWIDTH 16 0
BBX 16 16 0 -2
BITMAP 
0000
0000
0000
0000
0000
0000
0000
0000
0000
0000
0040
03F8
0040
00A0
0318
0000
ENDCHAR
STARTCHAR U+01F0
ENCODING 496
SWIDTH 1000 0
DWIDTH 16 0
BBX 16 16 0 -2
BITMAP 
0000
0000
0000
0000
0000
0000
0000
0000
0000
0000
0080
07E0
0080
0140
0620
0000
ENDCHAR
STARTCHAR U+01F1
ENCODING 497
SWIDTH 1000 0
DWIDTH 16 0
BBX 16 16 0 -2
BITMAP 
0000
0000
0000
0000
0000
0000
0000
0000
0000
0000
03F8
0008
03F8
0008
0008
0000
ENDCHAR
STARTCHAR U+01F2
ENCODING 498
SWIDTH 1000 0
DWIDTH 16 0
BBX 16 16 0 -2
BITMAP 
0000
0000
0000
0000
0000
0000
0000
0000
0000
0000
03F8
0008
03F8
0008
0008
0000
ENDCHAR
STARTCHAR U+01F3
ENCODING 499
SWIDTH 1000 0
DWIDTH 16 0
BBX 16 16 0 -2
BITMAP 
0000
0000
0000
0000
0000
0000
0000
0000
0000
0000
03F8
0008
03F8
0008
0008
0000
ENDCHAR
STARTCHAR U+01F4
ENCODING 500
SWIDTH 1000 0
DWIDTH 16 0
BBX 16 16 0 -2
BITMAP 
0000
0000
0000
0000
0000
0000
0000
0000
0000
0000
1FF0
0010
1FF0
0010
0010
0000
ENDCHAR
STARTCHAR U+01F5
ENCODING 501
SWIDTH 1000 0
DWIDTH 16 0
BBX 16 16 0 -2
BITMAP 
0000
0000
0000
0000
0000
0000
0000
0000
0000
0000
03F8
0200
03F8
0200
03F8
0000
ENDCHAR
STARTCHAR U+01F6
ENCODING 502
SWIDTH 1000 0
DWIDTH 16 0
BBX 16 16 0 -2
BITMAP 
0000
0000
0000
0000
0000
0000
0000
0000
0000
0000
03F8
0200
03F8
0200
03F8
0000
ENDCHAR
STARTCHAR U+01F7
ENCODING 503
SWIDTH 1000 0
DWIDTH 16 0
BBX 16 16 0 -2
BITMAP 
0000
0000
0000
0000
0000
0000
0000
0000
0000
0000
03F8
0200
03F8
0200
03F8
0000
ENDCHAR
STARTCHAR U+01F8
ENCODING 504
SWIDTH 1000 0
DWIDTH 16 0
BBX 16 16 0 -2
BITMAP 
0000
0000
0000
0000
0000
0000
0000
0000
0000
0000
1FF0
1000
1FF0
1000
1FF0
0000
ENDCHAR
STARTCHAR U+01F9
ENCODING 505
SWIDTH 1000 0
DWIDTH 16 0
BBX 16 16 0 -2
BITMAP 
0000
0000
0000
0000
0000
0000
0000
0000
0000
0000
0000
0FF8
0220
0220
0FF8
0000
ENDCHAR
STARTCHAR U+01FA
ENCODING 506
SWIDTH 1000 0
DWIDTH 16 0
BBX 16 16 0 -2
BITMAP 
0000
0000
0000
0000
0000
0000
0000
0000
0000
0000
0000
0FF8
0220
0220
0FF8
0000
ENDCHAR
STARTCHAR U+01FB
ENCODING 507
SWIDTH 1000 0
DWIDTH 16 0
BBX 16 16 0 -2
BITMAP 
0000
0000
0000
0000
0000
0000
0000
0000
0000
0000
0000
0FF8
0220
0220
0FF8
0000
ENDCHAR
STARTCHAR U+01FC
ENCODING 508
SWIDTH 1000 0
DWIDTH 16 0
BBX 16 16 0 -2
BITMAP 
0000
0000
0000
0000
0000
0000
0000
0000
0000
0000
0000
1FF0
0440
0440
1FF0
0000
ENDCHAR
STARTCHAR U+01FD
ENCODING 509
SWIDTH 1000 0
DWIDTH 16 0
BBX 16 16 0 -2
BITMAP 
0000
0000
0000
0000
0000
0000
0000
0000
0000
0000
0080
0FF8
03E0
0410
03E0
0000
ENDCHAR
STARTCHAR U+01FE
ENCODING 510
SWIDTH 1000 0
DWIDTH 16 0
BBX 16 16 0 -2
BITMAP 
0000
0000
0000
0000
0000
0000
0000
0000
0000
0000
0080
0FF8
03E0
0410
03E0
0000
ENDCHAR
STARTCHAR U+01FF
ENCODING 511
SWIDTH 1000 0
DWIDTH 16 0
BBX 16 16 0 -2
BITMAP 
0000
0000
0000
0000
0000
0000
0000
0000
0000
0000
0080
0FF8
03E0
0410
03E0
0000
ENDCHAR
STARTCHAR U+0200
ENCODING 512
SWIDTH 1000 0
DWIDTH 16 0
BBX 16 16 0 -2
BITMAP 
0000
0000
0000
0000
0000
0000
0000
0000
0000
0000
0100
1FF0
07C0
0820
07C0
0000
ENDCHAR
STARTCHAR U+0201
ENCODING 513
SWIDTH 1000 0
DWIDTH 16 0
BBX 16 16 0 -2
BITMAP 
0000
0000
0000
0000
0000
0000
0000
0000
0000
0000
7EFE
0200
7E38
4044
7E38
0000
ENDCHAR
STARTCHAR U+0202
ENCODING 514
SWIDTH 1000 0
DWIDTH 16 0
BBX 16 16 0 -2
BITMAP 
0000
0000
0000
0000
0000
0000
0000
0000
0000
0000
7EFE
0200
7E38
4044
7E38
0000
ENDCHAR
STARTCHAR U+0203
ENCODING 515
SWIDTH 1000 0
DWIDTH 16 0
BBX 16 16 0 -2
BITMAP 
0000
0000
0000
0000
0000
0000
0000
0000
0000
0000
7EFE
0200
7E38
4044
7E38
0000
ENDCHAR
STARTCHAR U+0204
ENCODING 516
SWIDTH 1000 0
DWIDTH 16 0
BBX 16 16 0 -2
BITMAP 
0000
0000
0000
0000
0000
0000
0000
0000
0000
0000
3EFE
0200
3E38
2044
3E38
0000
ENDCHAR
STARTCHAR U+0205
ENCODING 517
SWIDTH 1000 0
DWIDTH 16 0
BBX 16 16 0 -2
BITMAP 
0000
0000
0000
0000
0000
0000
0000
0000
0000
0000
7EF8
4208
4208
4208
7E08
0000
ENDCHAR
STARTCHAR U+0206
ENCODING 518
SWIDTH 1000 0
DWIDTH 16 0
BBX 16 16 0 -2
BITMAP 
0000
0000
0000
0000
0000
0000
0000
0000
0000
0000
7EF8
4208
4208
4208
7E08
0000
ENDCHAR
STARTCHAR U+0207
ENCODING 519
SWIDTH 1000 0
DWIDTH 16 0
BBX 16 16 0 -2
BITMAP 
0000
0000
0000
0000
0000
0000
0000
0000
0000
0000
7E7C
4204
4204
4204
7E04
0000
ENDCHAR
STARTCHAR U+0208
ENCODING 520
SWIDTH 1000 0
DWIDTH 16 0
BBX 16 16 0 -2
BITMAP 
0000
0000
0000
0000
0000
0000
0000
0000
0000
0000
3E78
2208
2208
2208
3E08
0000
ENDCHAR
STARTCHAR U+0209
ENCODING 521
SWIDTH 1000 0
DWIDTH 16 0
BBX 16 16 0 -2
BITMAP 
0000
0000
0000
0000
0000
0000
0000
0000
0000
0000
1FF0
0000
07C0
0820
07C0
0000
ENDCHAR
STARTCHAR U+020A
ENCODING 522
SWIDTH 1000 0
DWIDTH 16 0
BBX 16 16 0 -2
BITMAP 
0000
0000
0000
0000
0000
0000
0000
0000
0000
0000
1FF0
0000
07C0
0820
07C0
0000
ENDCHAR
STARTCHAR U+020B
ENCODING 523
SWIDTH 1000 0
DWIDTH 16 0
BBX 16 16 0 -2
BITMAP 
0000
0000
0000
0000
0000
0000
0000
0000
0000
0000
1FF0
0000
07C0
0820
07C0
0000
ENDCHAR
STARTCHAR U+020C
ENCODING 524
SWIDTH 1000 0
DWIDTH 16 0
BBX 16 16 0 -2
BITMAP 
0000
0000
0000
0000
0000
0000
0000
0000
0000
0000
1FF0
0000
07C0
0820
07C0
0000
ENDCHAR
STARTCHAR U+020D
ENCODING 525
SWIDTH 1000 0
DWIDTH 16 0
BBX 16 16 0 -2
BITMAP 
0000
0000
0000
0000
0000
0000
0000
0000
0000
0000
0100
0100
07C0
0820
07C0
0000
ENDCHAR
STARTCHAR U+020E
ENCODING 526
SWIDTH 1000 0
DWIDTH 16 0
BBX 16 16 0 -2
BITMAP 
0000
0000
0000
0000
0000
0000
0000
0000
0000
0000
0100
0100
07C0
0820
07C0
0000
ENDCHAR
STARTCHAR U+020F
ENCODING 527
SWIDTH 1000 0
DWIDTH 16 0
BBX 16 16 0 -2
BITMAP 
0000
0000
0000
0000
0000
0000
0000
0000
0000
0000
0100
0100
07C0
0820
07C0
0000
ENDCHAR
STARTCHAR U+0210
ENCODING 528
SWIDTH 1000 0
DWIDTH 16 0
BBX 16 16 0 -2
BITMAP 
0000
0000
0000
0000
0000
0000
0000
0000
0000
0000
0100
0100
07C0
0820
07C0
0000
ENDCHAR
ENDFONT
